<?xml version="1.0" encoding="UTF-8"?>
<!DOCTYPE svg PUBLIC "-//W3C//DTD SVG 1.1//EN" "http://www.w3.org/Graphics/SVG/1.1/DTD/svg11.dtd">
<!-- Creator: CorelDRAW -->
<svg xmlns="http://www.w3.org/2000/svg" xml:space="preserve" width="1650px" height="1434px" version="1.1" style="shape-rendering:geometricPrecision; text-rendering:geometricPrecision; image-rendering:optimizeQuality; fill-rule:evenodd; clip-rule:evenodd"
viewBox="0 0 261.27 227.02"
 xmlns:xlink="http://www.w3.org/1999/xlink"
 xmlns:xodm="http://www.corel.com/coreldraw/odm/2003">
 <defs>
  <style type="text/css">
   <![CDATA[
    .fil8 {fill:#FEFEFE;fill-rule:nonzero}
    .fil10 {fill:#FFFFFF;fill-rule:nonzero}
    .fil9 {fill:#FFFFFF;fill-rule:nonzero}
    .fil4 {fill:#E31E24;fill-rule:nonzero}
    .fil2 {fill:#F2F9FE;fill-rule:nonzero}
    .fil5 {fill:#C4252D;fill-rule:nonzero}
    .fil0 {fill:#CBC9CB;fill-rule:nonzero}
    .fil1 {fill:#CEDAED;fill-rule:nonzero}
    .fil3 {fill:#A1282E;fill-rule:nonzero}
    .fil7 {fill:#322A28;fill-rule:nonzero}
    .fil6 {fill:#3F3E40;fill-rule:nonzero}
   ]]>
  </style>
 </defs>
 <g id="Layer_x0020_1">
  <metadata id="CorelCorpID_0Corel-Layer"/>
  <g id="Red_x0020_Donkey_x0020_Logo_x0020_I_x0020_EDIT.pdf">
   <path class="fil0" d="M114.49 149.95c-3.9,0 -7.62,-0.04 -10.8,-0.14 -9.5,-0.29 -19.34,-1.94 -15.88,-4.32 5.33,-0.7 14.13,-1.16 22.63,-1.17 0.06,0 0.13,0 0.18,0 1.22,0 1.06,-0.25 2.08,-0.28 2.45,0.05 5.03,0.07 7.67,0.07 1.91,0 3.86,-0.01 5.81,-0.02 1.96,-0.01 3.92,-0.02 5.88,-0.02 5.57,0 11.06,0.08 15.96,0.43 11.09,0.24 19.71,1.68 18.14,3.51 -1.77,0.01 -0.57,0.24 -2.26,0.54 -9.18,0.53 -22.34,0.85 -34.85,1.2 -4.67,0.13 -9.75,0.2 -14.56,0.2z"/>
   <path class="fil1" d="M120.89 103.18c-0.89,0.01 -1.84,0.24 -2.77,0.4 -5.79,2.76 -8.49,5.32 -8.02,7.62 0.65,3.17 7.14,4.84 7.72,4.81l0.08 -0.01 0.07 0.03c2.71,1.39 11.45,2.22 18.22,1.77 15.97,-1.07 9.3,-14.85 -15.3,-14.62z"/>
   <path class="fil1" d="M85.55 72.91c-2.14,-3.35 -7.2,-3.43 -15.11,-4.11l-0.07 -0.01 -0.05 -0.03c-0.09,-0.06 -0.3,-0.12 -0.78,-0.07 -4.08,0.43 -13.66,6.87 -14.17,7.82l0 0.03c-0.19,8.38 3.01,12.71 3.9,13.3 6.44,4.24 10.75,2.44 11.89,2.32 5.49,-0.58 7.75,-3.48 13.35,-9.15 0.02,-0.16 0.46,-0.73 0.78,-0.9l0.02 -0.05c1.75,-3.58 1.83,-6.66 0.24,-9.15z"/>
   <path class="fil2" d="M56.72 74.13c-0.57,0.47 -0.92,1.2 -1.33,1.87 -0.49,6.1 0.8,10.39 3.85,12.76 4.18,3.27 7.89,1.98 8.24,1.65l0.04 -0.05 0.08 0.01c3.41,0.19 10.08,-3.34 13.93,-7.32 9.1,-9.39 -9.12,-21.77 -24.81,-8.92z"/>
   <path class="fil2" d="M137.25 114.74c0.58,-0.23 0.97,-0.66 1.41,-1.03 0.96,-3.79 0.09,-6.64 -2.6,-8.48 -3.7,-2.54 -9.68,-2.34 -10.04,-2.17l-0.04 0.02 -0.07 -0.01c-3.22,-0.51 -9.82,0.96 -13.8,3.02 -9.39,4.89 9.23,14.96 25.14,8.65z"/>
   <path class="fil3" d="M75.36 41.08c-3.42,-3.01 7.15,-20.37 8.14,-20.48 0.14,-0.01 1.88,-3.04 1.93,-2.94 0.4,1.96 -2.16,7.17 -3.08,9.22 -0.69,1.56 -1.7,4.47 -1.7,4.47 -0.46,0.94 -0.81,1.79 -1.15,2.62 -0.33,0.8 -0.65,1.57 -1.05,2.38 0.48,-0.35 0.88,-0.8 1.28,-1.25 0.45,-0.51 0.89,-1 1.41,-1.31 -0.01,-0.05 -0.01,-0.11 0,-0.17l0.01 -0.1 0.09 -0.07c3.93,-2.93 8.16,-9.76 7.74,-14.16 -0.02,-5.64 -0.5,-11.83 -3.98,-15.39 -0.87,2.15 -1.84,4.24 -2.78,6.26 -0.92,1.97 -2.68,4.05 -3.53,6.13 -0.42,1.03 -0.92,2.12 -1.35,3.05 -3.84,4.05 -5.57,22.72 -7.13,20.57 -0.33,0.34 -6.83,-16.59 -33.81,-13.27 -6.28,0.77 -6.5,1.93 -7.91,2.46 4.93,3.2 16.31,11.51 27.27,10.35l0.01 0c0.8,-0.09 1.57,-0.22 2.3,-0.41 -10.14,-1.6 -20.51,-7.5 -20.25,-7.78 0.34,-0.36 30.04,4.74 28.79,10.38l-0.02 0.05 -0.04 0.03c-10.08,9.52 -12.06,21.21 -11.56,32.02l0.01 0.1 -0.01 0.01c-0.02,0.11 -0.05,0.23 -0.09,0.34 -0.05,0.15 -0.12,0.35 -0.07,0.41l0.09 0.04c4.12,-3.35 8.24,-7.01 14.98,-7.73 1.24,-0.13 2.45,-0.15 3.58,-0.05 4.32,0.36 6.92,2.03 9.43,3.64 1.63,1.05 3.27,0.17 5.43,0.92 3.88,-10.36 -5.87,-24.08 -12.98,-30.34z"/>
   <path class="fil4" d="M77.27 40.97c-2.97,-3.03 6.46,-20.33 7.33,-20.43 0.13,-0.01 -0.06,-2.83 0.83,-2.88 0.34,1.97 -0.46,6.93 -1.28,8.97 -0.63,1.56 -2.15,4.64 -2.15,4.64 -0.41,0.94 -0.72,1.79 -1.03,2.61 -0.3,0.8 -0.58,1.57 -0.94,2.38 0.42,-0.35 0.78,-0.8 1.13,-1.24 0.41,-0.51 0.79,-0.99 1.25,-1.31 -0.01,-0.04 -0.01,-0.1 0,-0.17l0.02 -0.09 0.08 -0.07c3.47,-2.91 7.25,-9.71 6.92,-14.12 0.03,-5.64 -0.34,-11.84 -3.37,-15.42 -0.77,2.15 -1.65,4.23 -2.5,6.24 -0.82,1.96 -2.48,4.04 -3.24,6.11 -0.38,1.03 -0.83,2.12 -1.22,3.05 -3.41,4.02 -7.53,22.83 -8.9,20.67 -0.29,0.34 -3.29,-16.79 -27.03,-13.66 -5.52,0.73 -9.98,2.13 -11.22,2.66 4.3,3.23 18.49,11.38 28.12,10.29l0 0c0.72,-0.08 1.4,-0.21 2.03,-0.39 -8.89,-1.67 -24.51,-7.27 -24.28,-7.55 0.3,-0.36 19.69,-2.4 31.76,10.21l-0.02 0.05 -0.03 0.03c-8.94,9.45 -11.59,12.96 -11.02,31.24 0.03,1.09 8.07,-9.74 25.16,-2.33 1.63,0.71 2.84,0.19 4.74,0.96 3.49,-10.35 -4.94,-24.14 -11.14,-30.45z"/>
   <path class="fil5" d="M164.27 86.11l-0.06 -0.16c-0.85,-2.07 -2.31,-3.38 -3.86,-4.76 -0.87,-0.77 -4.74,-3.22 -7.87,-4.44 -2.05,-0.79 -4.55,-1.77 -5.26,-1.92l-0.01 0.02 -0.23 -0.02c-4.43,-0.5 -9.45,-1.06 -14.45,-0.53 -1.09,0.12 -2.16,0.29 -3.18,0.5 -0.53,0.11 -2.04,0.98 -3.5,1.83 -2.22,1.28 -3.73,2.13 -4.43,2.21 -0.13,0.01 -0.24,0 -0.33,-0.04l-0.2 -0.08 0.1 -0.19c0.18,-0.37 0.21,-0.62 0.23,-0.84 0.02,-0.17 0.04,-0.33 0.12,-0.51l-0.15 0.02c-0.33,0.03 -0.7,0.04 -0.95,-0.17 -0.24,-0.18 -0.13,-0.47 -0.05,-0.68 0.02,-0.06 0.05,-0.14 0.06,-0.2l-0.14 0.09c-0.22,0.15 -0.48,0.32 -0.84,0.4l-0.07 0.02 -0.06 -0.01c-0.48,-0.09 -0.77,-0.26 -0.88,-0.5 -0.16,-0.37 0.11,-0.8 0.38,-1.21 0.17,-0.27 0.35,-0.54 0.39,-0.77 -0.19,0.07 -0.38,0.12 -0.56,0.14 -0.43,0.04 -0.77,-0.08 -0.94,-0.33l-0.02 -0.02 -0.01 -0.04c-0.19,-0.75 0.16,-1.2 0.44,-1.56 0.2,-0.26 0.34,-0.44 0.31,-0.71 -0.25,0.06 -0.43,0.16 -0.64,0.27 -0.29,0.15 -0.61,0.32 -1.09,0.37 -0.08,0.01 -0.16,0.01 -0.25,0.01l-0.2 0 -0.04 -0.15c-0.02,-0.08 -0.06,-0.17 -0.1,-0.26 -0.1,-0.19 -0.21,-0.43 -0.19,-0.69 -0.16,0.04 -0.32,0.07 -0.49,0.09 -0.1,0.01 -0.21,0.02 -0.32,0.02l-0.1 0 -0.06 -0.05c-0.45,-0.33 -0.62,-0.77 -0.49,-1.22l-0.17 0.06c-0.22,0.08 -0.48,0.18 -0.73,0.21 -0.37,0.03 -0.65,-0.09 -0.82,-0.36l-0.03 -0.05 0.01 -0.07c0.1,-0.71 0.5,-1.3 0.85,-1.83 0.29,-0.43 0.55,-0.81 0.63,-1.22 -0.19,0.06 -0.37,0.15 -0.55,0.23 -0.31,0.15 -0.67,0.32 -1.17,0.37l-0.17 0.02 -0.08 -0.11c-0.06,-0.09 -0.11,-0.15 -0.16,-0.2 -0.12,-0.13 -0.19,-0.23 -0.19,-0.42 -0.4,0.19 -0.9,0.38 -1.34,0.43 -0.65,0.07 -0.91,-0.21 -1.02,-0.46l-0.02 -0.06 0.01 -0.06c0.16,-0.67 0.44,-1.24 0.72,-1.79 0.18,-0.38 0.37,-0.74 0.51,-1.14l-0.01 0.01c-0.6,0.35 -1.27,0.75 -1.88,0.82 -0.55,0.06 -0.95,-0.16 -1.19,-0.64l-0.04 -0.09 0.12 -0.24c0.11,-0.2 0.21,-0.4 0.27,-0.62l-0.01 0c-0.54,0.01 -0.9,0.02 -1.35,-0.35l-0.09 -0.08 0.02 -0.1c0.05,-0.33 0.14,-0.62 0.26,-0.9 -0.1,0.12 -0.19,0.24 -0.29,0.36 -0.6,0.78 -1.22,1.59 -2.18,1.69 -0.39,0.04 -0.77,-0.03 -1.19,-0.23l-0.12 -0.05 0 -0.12c-0.06,-1.23 0.57,-2.82 1.14,-4.22l0.05 -0.13c-0.34,0.34 -0.75,0.68 -1.51,0.76 -0.11,0.01 -0.23,0.02 -0.36,0.02l-0.11 0 -0.07 -0.07c-0.72,-0.74 -0.4,-1.63 -0.08,-2.49 0.06,-0.17 0.12,-0.34 0.17,-0.51 -0.11,0.15 -0.22,0.3 -0.33,0.46 -0.42,0.6 -0.9,1.28 -1.96,1.39l-0.19 0.01 -0.04 0c-1.03,-0.21 -0.67,-1.18 -0.44,-1.83l0.06 -0.16c-0.02,0 -0.22,0.01 -0.3,0.02 -0.26,0.03 -0.34,0.07 -0.37,0.09l-0.12 0.12 -0.17 -0.03c-0.75,-0.16 -0.75,-0.77 -0.75,-1.26 0,-0.11 0,-0.23 -0.01,-0.33 -0.41,0.23 -0.93,0.49 -1.4,0.54 -0.4,0.05 -0.71,-0.06 -0.92,-0.3l-0.07 -0.08 0.03 -0.1c0.07,-0.26 0.08,-0.55 0.09,-0.86 0.02,-0.28 0.03,-0.57 0.08,-0.86 -0.38,0.23 -0.78,0.37 -1.17,0.41 -0.38,0.04 -0.77,0 -1.15,-0.14l-0.19 -0.07 0.07 -0.19c0.11,-0.29 0.18,-0.72 0.25,-1.14 0.06,-0.34 0.11,-0.66 0.18,-0.93 -0.41,0.09 -0.74,0.13 -1.03,0.16l-0.74 0.08c-0.09,0.01 -0.46,0.05 -0.46,0.05l-0.07 -0.13c-0.37,-0.73 -0.01,-1.32 0.34,-1.88 0.05,-0.07 0.09,-0.15 0.14,-0.22l-0.07 0.06c-0.36,0.3 -0.7,0.59 -1.29,0.79l-0.09 0.02 -0.08 -0.01c-0.67,-0.14 -1.06,-0.67 -1.12,-1.21l-0.06 0.04c-0.23,0.14 -0.48,0.29 -0.84,0.37l-0.2 0.05 -0.08 -0.15c-0.06,-0.09 -0.22,-0.12 -0.47,-0.16 -0.24,-0.03 -0.52,-0.07 -0.7,-0.23l-0.13 -0.11 0.1 -0.15c0.24,-0.37 0.36,-0.94 0.34,-1.28 -0.16,0.1 -0.31,0.21 -0.45,0.32 -0.41,0.29 -0.83,0.6 -1.33,0.65 -0.12,0.01 -0.24,0.01 -0.36,0 5.09,10.08 9.04,20.1 6,31.05 -3.04,10.97 -2.64,19.36 1.3,27.19 2.17,4.31 3.96,6.05 5.99,5.84 1.55,-0.17 3.31,-1.41 5.54,-2.99 2.36,-1.67 5.28,-3.73 9.14,-5.4 3.24,-1.39 6.31,-2.23 9.37,-2.56 4.79,-0.5 12.36,0.5 20.04,5.57 1.78,1.18 6.73,6.92 9.95,7.88 2.29,0.69 3.11,1.35 3.43,2.43 0,0 -0.76,21.71 -0.2,23.59 1.93,-1.2 3.95,-27.98 4.07,-28.09 -0.07,-0.04 -0.54,-3.54 -0.54,-3.54 4.07,-6.85 8.3,-15.98 5.54,-23.09z"/>
   <path class="fil4" d="M165.27 87.73l-0.05 -0.15c-0.77,-2.01 -2.11,-3.28 -3.52,-4.62 -0.79,-0.75 -4.32,-3.13 -7.19,-4.32 -1.87,-0.78 -4.17,-1.73 -4.82,-1.88l-0.01 0.03 -0.21 -0.03c-4.07,-0.49 -8.68,-1.04 -13.26,-0.54 -1,0.11 -1.99,0.26 -2.93,0.46 -0.48,0.11 -1.88,0.95 -3.23,1.77 -2.04,1.24 -3.43,2.05 -4.08,2.12 -0.12,0.02 -0.22,0 -0.3,-0.03l-0.18 -0.09 0.09 -0.18c0.17,-0.35 0.19,-0.59 0.22,-0.81 0.01,-0.16 0.03,-0.32 0.1,-0.49l-0.12 0.01c-0.31,0.04 -0.66,0.05 -0.88,-0.16 -0.22,-0.17 -0.12,-0.46 -0.04,-0.66l0.06 -0.2 -0.14 0.1c-0.2,0.14 -0.43,0.3 -0.77,0.38l-0.06 0.02 -0.06 -0.02c-0.44,-0.08 -0.7,-0.24 -0.8,-0.48 -0.15,-0.35 0.11,-0.77 0.35,-1.17 0.16,-0.26 0.33,-0.52 0.36,-0.75 -0.16,0.07 -0.34,0.12 -0.51,0.14 -0.39,0.04 -0.71,-0.07 -0.86,-0.32l-0.02 -0.03 0 -0.03c-0.17,-0.73 0.73,-1.94 0.69,-2.19 -0.22,0.05 -1.14,0.56 -1.58,0.61 -0.08,0.01 -0.15,0.01 -0.24,0.01l-0.17 0 -0.04 -0.15c-0.02,-0.08 -0.06,-0.16 -0.1,-0.25 -0.08,-0.18 -0.18,-0.41 -0.16,-0.66 -0.15,0.03 -0.3,0.06 -0.45,0.08 -0.09,0.01 -0.19,0.01 -0.3,0.02l-0.09 0 -0.06 -0.05c-0.41,-0.32 -1.04,-0.95 -1.27,-0.93 -0.33,0.04 -0.59,-0.08 -0.74,-0.34l-0.03 -0.06 0.01 -0.06c0.09,-0.69 1.3,-2.56 1.38,-2.95 -0.18,0.06 -1.13,0.53 -1.59,0.58l-0.15 0.02 -0.08 -0.11c-0.05,-0.09 -0.1,-0.15 -0.14,-0.19 -0.11,-0.13 -1,-0.05 -1.41,0 -0.6,0.06 -0.83,-0.21 -0.93,-0.45l-0.02 -0.06 0.01 -0.05c0.15,-0.65 1.01,-2.46 1.15,-2.83 0,0 -2.61,0.63 -2.83,0.17l-0.04 -0.09 0.12 -0.23c0.1,-0.2 -0.59,-0.58 -1,-0.95l-0.08 -0.07c0,0 0.16,-0.7 0.26,-0.97 -0.09,0.12 -0.18,0.23 -0.26,0.35 -0.56,0.76 -1.14,1.54 -2.02,1.63 -0.35,0.04 -0.71,-0.03 -1.1,-0.23l-0.09 -0.05 -0.01 -0.11c-0.05,-1.19 1.11,-4.17 1.13,-4.21 -0.32,0.33 -1.61,0.75 -1.73,0.75l-0.1 0 -0.06 -0.07c-0.66,-0.71 0.05,-2.74 0.1,-2.9 -0.11,0.14 -0.21,0.29 -0.31,0.44 -0.39,0.58 -0.83,1.24 -1.8,1.34l-0.18 0.02 -0.04 -0.01c-0.94,-0.2 -0.35,-1.88 -0.33,-1.93 -0.02,0 -0.2,0.02 -0.28,0.02 -0.24,0.03 -0.32,0.07 -0.34,0.09l-0.11 0.12 -0.15 -0.04c-0.69,-0.15 -0.69,-0.74 -0.69,-1.21 0,-0.12 0,-0.23 0,-0.33 -0.38,0.23 -1.95,0.46 -2.14,0.23l-0.06 -0.08 0.03 -0.09c0.06,-0.25 0.11,-1.39 0.17,-1.67 -0.36,0.23 -0.72,0.36 -1.08,0.4 -0.35,0.04 -0.71,-0.01 -1.06,-0.14l-0.18 -0.07 0.07 -0.18c0.1,-0.28 -1.21,-1.78 -1.21,-1.78 -0.08,0 -0.43,0.05 -0.43,0.05l-0.06 -0.14c-0.34,-0.7 0.41,-1.95 0.45,-2.02l-0.06 0.06c-0.33,0.29 -3.45,-0.11 -3.45,-0.11 -0.05,-0.09 -0.2,-0.12 -0.44,-0.16 -0.22,-0.03 -0.47,-0.07 -0.63,-0.22l-0.03 -0.26c0.22,-0.35 -17.34,-6.28 -11.28,-4.88 0.11,0.02 -2.07,3.7 1.88,2.41 10.18,11.85 13.35,21.8 10.49,32.39 -2.87,10.61 -2.56,18.73 1.01,26.32 1.96,4.18 6.16,5.73 8.03,5.52 1.42,-0.15 0.22,-1.19 2.28,-2.71 2.17,-1.61 6.05,-5.15 9.61,-6.76 2.98,-1.34 6.63,-1.07 9.45,-1.38 4.4,-0.47 13,0.12 19.18,5.77 10.17,9.3 15.33,2.25 15.33,2.25 3.79,-6.63 7.73,-15.45 5.24,-22.34z"/>
   <path class="fil6" d="M66.74 49.03c-0.82,0.01 -1.68,0.63 -2.27,1.62 -0.81,1.38 -1.1,3.66 0.55,5.89l0.05 0.07 0.08 0.02c0.28,0.08 0.53,0.11 0.79,0.11 0.86,-0.01 1.44,-0.47 1.96,-0.95l-0.2 -0.19 0.02 -0.01 -0.02 0.01 -0.01 -0.02 -0.18 -0.01 0 -0.01 0.17 0.02 0.04 0.01 0.29 0.02c0.91,-3.68 0.46,-5.29 -0.08,-5.99 -0.31,-0.39 -0.72,-0.6 -1.19,-0.59z"/>
   <path class="fil6" d="M74.28 48.06c-0.81,0.01 -1.67,0.63 -2.26,1.62 -0.81,1.39 -1.1,3.66 0.54,5.9l0.05 0.07 0.09 0.02c0.28,0.07 0.53,0.11 0.78,0.1 0.86,-0.01 1.45,-0.47 1.97,-0.94l-0.2 -0.19 0.02 -0.02 -0.02 0.01 -0.02 -0.01 -0.17 -0.02 0 0 0.17 0.02 0.04 0 0.29 0.03c0.91,-3.69 0.45,-5.29 -0.09,-5.99 -0.3,-0.4 -0.71,-0.6 -1.19,-0.6z"/>
   <path class="fil6" d="M61.24 78.99l-0.09 0.22 -0.03 -0.01 0.03 0.02 -0.01 0.01 -0.02 -0.03 -0.12 -0.17c-0.25,0.15 -0.44,0.28 -0.59,0.38l0 0 -0.01 0.01c-0.25,0.18 -0.37,0.3 -0.41,0.4 -1.65,1.66 -1.45,3.94 -0.66,5.57 0.59,0.64 1.78,1.45 3.02,1.71l0.1 0.02 0.11 -0.05c1.58,-0.86 2.48,-2.1 2.51,-3.5 0.04,-1.95 -1.6,-3.91 -3.83,-4.58z"/>
   <path class="fil6" d="M77.71 76.86l-0.01 -0.01 0 0c-0.14,-0.1 -0.34,-0.21 -0.6,-0.35l-0.16 0.21 -0.02 0.03 -0.01 -0.02 0.03 -0.01 -0.03 0.01 -0.07 -0.23c-2.58,1.02 -4.73,3.42 -4.99,5.58 -0.18,1.55 0.61,2.82 2.24,3.57l0.1 0.05 0.12 -0.03c1.43,-0.45 2.89,-1.5 3.63,-2.29 1.14,-1.92 1.74,-4.48 0.16,-6.12 -0.03,-0.11 -0.14,-0.23 -0.39,-0.39z"/>
   <path class="fil7" d="M68.06 49.53c0.56,0.72 1.03,2.36 0.11,6.1l-0.04 0.15 0 0 0 0 -0.12 0.11c-0.52,0.48 -1.11,0.95 -1.97,1l-0.12 0c-0.27,0 -0.54,-0.03 -0.83,-0.11l-0.13 -0.04 -0.08 -0.1c-1.68,-2.29 -1.39,-4.63 -0.55,-6.05 0.59,-1.01 1.49,-1.66 2.34,-1.71l0.09 0c0.52,-0.01 0.97,0.22 1.3,0.65z"/>
   <path class="fil7" d="M74.22 47.92l0.08 -0.01c0.53,0 0.98,0.22 1.31,0.65 0.56,0.72 1.03,2.37 0.11,6.1l-0.04 0.15 0 0 -0.12 0.12c-0.53,0.47 -1.11,0.94 -1.98,0.99l-0.12 0c-0.26,0.01 -0.53,-0.03 -0.82,-0.11l-0.14 -0.03 -0.08 -0.11c-1.68,-2.28 -1.38,-4.62 -0.54,-6.05 0.59,-1 1.49,-1.66 2.34,-1.7z"/>
   <path class="fil7" d="M62.62 87.2l-0.16 0.08 -0.16 -0.03c-1.28,-0.27 -2.5,-1.09 -3.1,-1.75 -0.8,-1.67 -1.04,-4.03 0.66,-5.76 0.06,-0.13 0.2,-0.26 0.45,-0.44l0.2 -0.18 0.01 0.04c0.11,-0.07 0.25,-0.16 0.4,-0.25l0.14 -0.08 0.05 0.07 0.04 -0.09 0.16 0.04c2.28,0.68 3.97,2.7 3.92,4.7 -0.03,1.46 -0.96,2.76 -2.61,3.65z"/>
   <path class="fil7" d="M76.79 76.36l0.17 -0.07 0.03 0.12 0.08 -0.11 0.13 0.07c0.18,0.1 0.33,0.18 0.45,0.26l0.02 -0.04 0.16 0.15c0.23,0.16 0.37,0.29 0.42,0.42 1.61,1.7 0.97,4.35 -0.17,6.27 -0.79,0.83 -2.28,1.91 -3.73,2.37l-0.19 0.05 -0.16 -0.07c-1.69,-0.78 -2.5,-2.09 -2.31,-3.71 0.27,-2.22 2.46,-4.67 5.1,-5.71z"/>
   <path class="fil7" d="M72.78 91.75c-0.51,0.11 -1.04,0.21 -1.62,0.27 -0.16,0.01 -0.36,0.06 -0.63,0.12 -0.54,0.12 -1.29,0.28 -2.27,0.34 -2.86,0.16 -5.85,-0.77 -8.89,-2.77 -0.68,-0.45 -4.03,-4.78 -3.84,-13.18 0.71,-0.94 9.84,-7.25 14.01,-7.69l0.17 -0.01c0.34,-0.03 0.47,0.03 0.51,0.05l0.08 0.06 0.11 0c4.9,0.43 8.69,0.61 11.37,1.49 0.61,0.21 1.17,0.46 1.68,0.75 0.8,0.46 1.46,1.05 1.95,1.82 0.84,1.32 1.2,2.82 1.09,4.47 -1.14,5.69 -8.94,12.51 -13.72,14.28zm39.78 12.04c-3.88,1.67 -6.82,3.75 -9.17,5.41 -2.21,1.57 -3.96,2.8 -5.46,2.96l-0.14 0.01c-1.9,0.11 -3.61,-1.62 -5.7,-5.78 -3.93,-7.8 -4.33,-16.16 -1.29,-27.09 3.15,-11.36 -1.35,-21.9 -5.89,-30.91l0.09 -0.01c0.55,-0.06 0.99,-0.38 1.41,-0.69l0.19 -0.14c-0.03,0.31 -0.13,0.68 -0.29,0.92l-0.17 0.26 0.21 0.19c0.22,0.18 0.52,0.22 0.77,0.26 0.11,0.02 0.35,0.05 0.37,0.09l0.14 0.24 0.31 -0.07c0.31,-0.07 0.56,-0.2 0.76,-0.32 0.14,0.57 0.59,0.99 1.19,1.11l0.13 0.03 0.12 -0.04c0.32,-0.11 0.57,-0.24 0.79,-0.39 -0.24,0.46 -0.39,0.98 -0.09,1.57l0.12 0.22 0.1 -0.01c0,0 0.37,-0.05 0.46,-0.05l0.74 -0.08c0.22,-0.02 0.49,-0.05 0.83,-0.12 -0.05,0.23 -0.1,0.47 -0.14,0.74 -0.07,0.41 -0.14,0.84 -0.25,1.11 0,0 0.93,0.61 1.3,0.59l0.13 -0.01c0.32,-0.03 0.65,-0.13 0.97,-0.29 -0.02,0.21 -0.03,0.41 -0.04,0.6 -0.01,0.29 -0.02,0.59 -0.09,0.84l-0.04 0.16 0.1 0.13c0.23,0.26 0.56,0.38 0.97,0.36l0.08 -0.01c0.44,-0.04 0.9,-0.25 1.26,-0.44l0 0.1c0,0.48 0,1.21 0.86,1.38l0.26 0.05 0.18 -0.17c0,0 0.05,-0.03 0.27,-0.05l0.08 -0.01c-0.17,0.47 -0.39,1.09 -0.14,1.54 0.12,0.22 0.36,0.37 0.73,0.44l0.02 0 0.02 0 0.2 -0.01c0.9,-0.1 1.42,-0.59 1.81,-1.09 -0.25,0.75 -0.39,1.53 0.26,2.2l0.11 0.11 0.18 0c0.08,0 0.15,0 0.23,-0.01l0.15 -0.01c0.49,-0.05 0.85,-0.21 1.15,-0.41 -0.53,1.31 2.54,3.04 2.53,3.09 0,0 0.91,0.7 1.38,0.7 -0.06,0.14 -0.13,0.27 -0.2,0.41l-0.16 0.31 0.07 0.14c0.25,0.51 1.31,0.72 1.34,0.72 0.52,-0.06 1.07,-0.34 1.59,-0.63 -0.11,0.25 -0.24,0.5 -0.36,0.74 -0.28,0.56 -0.57,1.14 -0.73,1.83l-0.02 0.1 0.04 0.1c0.16,0.38 0.54,0.57 1.07,0.54l0.1 0c0.41,-0.05 0.86,-0.21 1.21,-0.36 0.04,0.13 0.11,0.22 0.2,0.32 0.04,0.04 0.09,0.09 0.14,0.17l0.13 0.18 0.25 -0.03c0.54,-0.05 0.91,-0.23 1.24,-0.39 0.09,-0.04 0.17,-0.08 0.26,-0.12 -0.12,0.29 -0.31,0.59 -0.53,0.92 -0.37,0.54 -0.78,1.15 -0.88,1.89l-0.02 0.12 0.06 0.09c0.18,0.3 0.49,0.44 0.88,0.42l0.07 -0.01c0.25,-0.02 0.49,-0.1 0.71,-0.18 -0.03,0.42 0.17,0.82 0.58,1.11l0.1 0.08 0.27 -0.01c0.08,0 0.15,-0.01 0.22,-0.01 0.11,-0.02 0.22,-0.03 0.33,-0.05 0.02,0.22 0.12,0.41 0.2,0.59 0.04,0.08 0.08,0.15 0.1,0.22l0.06 0.26 0.31 -0.01 0.14 0 0.13 -0.01c0.51,-0.06 0.87,-0.24 1.16,-0.4 0.14,-0.07 0.26,-0.14 0.4,-0.19 -0.03,0.13 -0.12,0.25 -0.27,0.43 -0.28,0.37 -0.67,0.87 -0.46,1.73l0.03 0.05 0.01 0.01c0.18,0.28 0.54,0.42 0.98,0.39l0.09 0c0.11,-0.02 0.22,-0.03 0.32,-0.06 -0.07,0.15 -0.18,0.31 -0.28,0.47 -0.27,0.43 -0.58,0.92 -0.39,1.35 0.13,0.29 0.45,0.47 0.98,0.57l0.1 0.02 0.1 -0.02c0.28,-0.07 0.5,-0.18 0.68,-0.29 -0.06,0.21 -0.08,0.47 0.15,0.65 0.26,0.22 0.63,0.23 0.88,0.21l0.11 -0.01c-0.02,0.12 -0.04,0.23 -0.05,0.35 -0.02,0.2 -0.05,0.44 -0.22,0.78l-0.16 0.32 0.33 0.14c0.09,0.04 0.21,0.06 0.35,0.05l0.06 0c0.74,-0.08 2.19,-0.9 4.52,-2.25 1.38,-0.79 2.93,-1.69 3.43,-1.8 1.01,-0.21 2.08,-0.37 3.16,-0.49 0.58,-0.06 1.18,-0.11 1.78,-0.14 4.38,-0.25 8.76,0.23 12.63,0.67l0.23 0.02 0.09 -0.01c0.8,0.21 3.19,1.14 5.15,1.9 3.17,1.24 6.99,3.67 7.82,4.42 1.54,1.37 2.99,2.67 3.82,4.71l0.07 0.15c2.16,5.56 0.35,13.07 -5.53,22.97l-0.02 0.05 0 0.05c0.34,2.55 0.46,3.29 0.54,3.51 -0.04,0.2 -0.1,0.78 -0.28,2.72 -0.52,5.77 -2.09,22.85 -3.53,25.04 -0.44,-3.04 0.25,-23.07 0.26,-23.29l0 -0.02 0 -0.02c-0.35,-1.18 -1.28,-1.83 -3.52,-2.51 -2.12,-0.63 -5.09,-3.46 -7.26,-5.51 -1.1,-1.05 -2.06,-1.96 -2.66,-2.36 -8.51,-5.62 -16.22,-5.83 -19.14,-5.67 -0.34,0.02 -0.68,0.05 -1,0.09 -3.08,0.32 -6.16,1.17 -9.42,2.57zm5.28 12.07c-0.58,0.03 -6.95,-1.6 -7.58,-4.7 -0.45,-2.22 2.2,-4.72 7.89,-7.43 0.19,-0.04 0.37,-0.07 0.55,-0.11 0.63,-0.12 1.27,-0.24 1.89,-0.28 0.09,0 0.19,-0.01 0.29,-0.01 16.15,-0.15 24.2,5.59 23.8,9.79 -0.23,2.5 -3.41,4.19 -8.49,4.53 -0.15,0.01 -0.31,0.02 -0.47,0.03 -6.8,0.39 -15.05,-0.44 -17.66,-1.78l-0.1 -0.05 -0.12 0.01zm-63.03 -76.48c-10.48,0.6 -20.49,-6.76 -25.97,-10.25 1.79,-0.62 1.78,-1.63 7.56,-2.34 1.28,-0.16 2.55,-0.27 3.78,-0.34 9.45,-0.55 22.23,1.26 29.47,12.98 0.28,0.45 0.36,0.59 0.46,0.62 0.1,0.13 0.23,0.19 0.36,0.18 0.79,-0.05 1.49,-2.55 2.76,-7.35 1.35,-5.07 2.21,-11.33 4.22,-13.45l0.02 -0.02 0.01 -0.03c0.44,-0.93 0.94,-2.02 1.36,-3.06 0.85,-2.08 2.61,-4.15 3.53,-6.14 0.91,-1.93 1.84,-3.93 2.68,-5.99 3.29,3.56 3.75,9.63 3.77,15.13 0.42,4.35 -3.78,11.11 -7.67,14.02l-0.14 0.11 -0.03 0.16 -0.01 0.12c-0.5,0.32 -0.92,0.79 -1.37,1.29 -0.23,0.26 -0.47,0.53 -0.72,0.77 0.27,-0.58 0.5,-1.14 0.75,-1.73l0.02 -0.06c0.34,-0.81 0.69,-1.66 1.15,-2.62 0.01,-0.03 1.02,-2.92 1.7,-4.46 0.11,-0.25 0.25,-0.55 0.4,-0.88 1.14,-2.49 3.05,-6.66 2.68,-8.45l-0.04 -0.09 -0.1 0.01c-0.14,0.01 -0.15,0.01 -1.02,1.43 -0.37,0.59 -0.86,1.39 -0.99,1.54 -0.9,0.39 -4.37,6.09 -6.49,10.67 -1.73,3.75 -3.42,8.53 -1.7,10.04 7.01,6.17 16.69,19.74 13.01,30.03 -0.48,-0.17 -0.93,-0.25 -1.37,-0.29 -1.49,-0.5 -2.76,-0.93 -4,-1.73 -1.97,-1.27 -3.97,-1.76 -6.81,-2.09 -0.79,-0.18 -1.63,-0.32 -2.55,-0.4 -0.83,-0.07 -1.71,-0.08 -2.6,-0.03 -0.34,0.02 -0.68,0.05 -1.02,0.09 -6.67,0.7 -10.77,4.3 -14.9,7.62 0.01,-0.06 0.04,-0.13 0.05,-0.17 0.03,-0.1 0.07,-0.21 0.09,-0.32l0.02 -0.03 0 -0.15c-0.51,-10.77 1.46,-22.42 11.5,-31.9l0.06 -0.06 0.05 -0.11c0.14,-0.66 -0.1,-1.33 -0.72,-2.01 -4.39,-4.78 -26.65,-8.63 -28.14,-8.55 -0.05,0.01 -0.14,0.01 -0.2,0.08l-0.07 0.09 0.02 0.08c0.15,0.5 9.9,6 19.63,7.73 -0.49,0.1 -1,0.17 -1.52,0.23 -0.32,0.03 -0.64,0.06 -0.96,0.08zm-28.18 -11.01c0,0.99 1.66,2.4 3.85,3.83 3.79,3.31 7.89,5.99 8.02,6.05 6.44,3.15 19.76,4.27 23.83,4.07 -0.8,1.36 -1.98,2.7 -3.23,4.13 -0.36,0.42 -0.58,0.83 -0.72,1.25 -0.85,1.38 -1.19,2.78 -1.91,4.3 -2.78,5.88 -3.46,12.9 -3.38,19.47 -0.08,1.84 -0.06,3.64 0.05,5.37 0.29,4.62 1.38,8 3.4,10.62 0.03,0.03 0.07,0.08 0.11,0.15 0.24,0.33 0.48,0.68 0.73,1.05 0.48,0.87 1.25,2.05 2.4,3.17 1.93,2.03 4.74,3.7 9.7,3.42 0.82,-0.05 1.66,-0.15 2.5,-0.3 0.16,-0.03 0.32,-0.05 0.47,-0.07 0.2,-0.03 0.4,-0.05 0.59,-0.09 4.24,-0.85 6.46,-2.83 8.82,-4.94 1.15,-1.03 2.29,-4.04 3.75,-4.97 -0.69,9.68 0.87,19.65 4.76,30.45 5.62,15.6 4.8,27.35 4.48,28.59 -0.24,0.94 -0.49,1.92 -0.14,3.06l0.1 0.33 0.41 -0.12c0.22,-0.06 0.46,-0.11 0.72,-0.14 0.09,0 0.18,-0.01 0.27,-0.02 0.27,-0.02 0.55,-0.01 0.89,-0.01 0.35,0 0.71,0 1.1,-0.02 0.15,-0.01 0.31,-0.02 0.47,-0.03 0.52,-0.06 1.02,-0.16 1.54,-0.31l0.47 -0.13 -0.13 -0.38c-0.74,-2.15 -1.51,-5.04 -1.95,-7.36 -0.02,-0.14 -1.94,-14.64 -0.66,-19.27 0.29,-1.07 3.65,-3.88 5.11,-4.04l0.05 0c0.15,-0.01 0.25,0.01 0.32,0.07 0.13,0.09 0.19,0.3 0.19,0.68 1.38,6.24 0.38,14.13 -0.43,20.48 -0.76,6.05 -1.37,10.82 0.07,12.65l0.12 0.15 0.22 -0.02c0.21,-0.01 0.41,-0.03 0.62,-0.05 0.93,-0.1 1.77,-0.27 2.49,-0.52l0.21 -0.07 0.08 -0.19c0.04,-0.08 0.07,-0.16 0.1,-0.25 0.11,-0.31 0.17,-0.43 0.29,-0.47l0.41 -0.14 -0.05 -0.14c-0.02,-0.04 -0.35,-1.03 -0.58,-1.41 -0.14,-0.23 -0.28,-0.47 -0.4,-0.76 0,-0.02 -0.38,-1.58 -0.54,-2.12 -0.16,-0.54 -0.08,-1.8 -0.08,-1.84l-0.02 -0.13 -0.05 -0.04c-0.48,-1.36 3.57,-21.81 4.47,-25.22 1.35,0.3 2.65,0.61 3.93,0.9 6.33,1.48 11.8,2.75 18.23,2.38 0.62,-0.03 1.26,-0.08 1.89,-0.15 2.67,-0.29 5.35,-0.84 8.18,-1.7 0.16,1.71 0.6,3.34 1.03,4.92 0.52,1.94 0.93,6.05 0.98,8.03 0.02,0.48 -0.5,4.37 -1.54,11.55l-0.08 0.6 -0.57 2.2 0.12 0.03c0.04,0.01 0.81,0.21 1.87,0.16 1.38,-0.09 2.58,-0.59 3.48,-1.47l0.06 -0.05 -0.13 -2.6 -0.09 -0.02c-1.01,-0.3 -0.02,-4.72 0.86,-8.62 0.32,-1.44 0.66,-2.93 0.9,-4.24 0.49,-2.67 1.01,-7 0.97,-7.79 0.14,-2.08 0.33,-3.01 0.46,-3.42 1.31,2.65 3.08,24.92 1.62,28.82l-0.12 0.33 0.33 0.11c0.9,0.3 1.64,0.43 2.24,0.39l0.15 -0.01c1,-0.11 1.41,-0.67 1.66,-1.02l0.12 -0.15 0.22 0.08 0.02 -0.23c0.02,-0.23 2.14,-22.73 4.42,-30.45 0.59,-1.98 0.98,-4.01 1.36,-5.97 0.73,-3.74 1.49,-7.61 3.59,-11.6 2.34,-4.46 1.25,-6.93 -0.01,-9.8 -0.58,-1.31 -1.23,-2.8 -1.6,-4.63l-0.04 -0.14 -0.14 -0.07 -0.09 -0.06c6.56,-4.79 9.98,-9.06 10.77,-13.45 0.82,-4.6 -1.27,-9.42 -6.58,-15.17l-0.1 -0.12 -0.02 0.02 -0.15 0c-0.19,0 -0.32,-0.04 -0.45,-0.14 1.3,-1.82 1.27,-6.51 -0.08,-8.95 -0.2,-0.37 -0.46,-0.54 -0.77,-0.52 -0.34,0.02 -0.65,0.27 -0.84,0.46l-1.12 -3.34 -0.19 0.21c-0.44,0.48 -0.6,2 -0.7,3.42l-0.02 0.23c-0.02,0.26 -0.04,0.52 -0.09,0.77 -0.07,-0.6 -0.09,-1.29 -0.12,-1.91 -0.1,-2.42 -0.2,-3.68 -1.13,-3.63l-0.04 0.01 -0.1 0.01 -0.26 0.07 -0.09 0.2c-0.75,1.61 -0.92,2.99 -1.1,4.46 -0.04,0.39 -0.05,1.81 0.02,2.37 -0.11,0.02 -0.27,0.04 -0.43,0.07 -1.04,0.16 -1.04,0.16 -1.04,0.31 0.2,3.4 2.99,5.59 5.45,7.53 0.68,0.54 1.33,1.05 1.92,1.58 0.26,0.24 0.57,0.5 0.9,0.78 2.48,2.12 6.24,5.33 5.51,9.65 -0.56,3.29 -3.68,6.72 -9.29,10.21 -0.13,0.08 -0.28,0.12 -0.45,0.13 -0.81,0.05 -1.98,-0.73 -3.2,-1.6 -5.65,-4.04 -15.48,-3.98 -22.38,-3.58 -2.96,0.17 -5.91,0.44 -8.5,0.69 0,0 -1.41,0.13 -1.98,0.18 0.04,-0.13 0.04,-0.26 0.02,-0.4l-0.02 -0.05 -0.01 -0.02c-0.24,-0.44 -0.66,-0.65 -1.21,-0.62l-0.1 0.01c-0.22,0.02 -0.44,0.08 -0.66,0.15 0.14,-0.2 0.31,-0.38 0.48,-0.58 0.5,-0.56 1.12,-1.25 0.87,-2.23l-0.07 -0.28 -0.41 0.03c-0.11,0.01 -0.17,0 -0.22,0 -0.05,-0.01 -0.12,-0.01 -0.19,-0.01l-0.04 0 -0.08 0.01c-0.14,-0.27 -0.24,-0.68 -0.2,-0.79l0.21 -0.61 -0.7 0.18c-0.4,0.1 -0.74,0.21 -1.03,0.33 0.51,-0.63 0.94,-1.31 1.14,-2.17l0.14 -0.6 -0.66 0.21c-0.23,0.07 -0.41,0.11 -0.6,0.13 -0.07,0.01 -0.14,0.01 -0.2,0.02 -0.1,0 -0.21,0.01 -0.36,0.01 -0.1,0 -0.21,0.01 -0.33,0.01l0 -0.43 -0.38 0c-0.1,0 -0.2,0 -0.29,0.01 -0.08,0 -0.15,0 -0.22,0.01 -0.47,0.05 -0.85,0.17 -1.17,0.33 0.48,-0.51 0.79,-1.12 0.26,-1.84l-0.11 -0.15 -0.21 0c-0.07,0 -0.13,0.01 -0.19,0.01l-0.16 0.01c-1.36,0.15 -2.05,1.06 -2.66,1.86 -0.13,0.17 -0.25,0.33 -0.37,0.49 0.65,-1.11 1.48,-2.27 2.32,-3.23l0.25 -0.29 -0.26 -0.21c-0.03,-0.03 -0.06,-0.16 -0.07,-0.24 -0.05,-0.21 -0.1,-0.51 -0.42,-0.67l-0.15 -0.05 -0.13 0.02c-0.39,0.04 -0.8,0.17 -1.14,0.31 0.03,-0.06 0.07,-0.13 0.1,-0.19 0.33,-0.66 0.71,-1.41 0.08,-1.94l-0.09 -0.08 -0.12 -0.01c-0.09,-0.01 -0.17,-0.02 -0.27,-0.01l-0.08 0.01c-0.16,0.01 -0.31,0.05 -0.44,0.09 0.17,-0.3 0.28,-0.64 0.31,-1.01l0.02 -0.26 -0.26 -0.09c-0.33,-0.1 -0.65,-0.14 -0.96,-0.12l-0.11 0.01c-1.27,0.14 -1.99,1.2 -2.68,2.23 -0.17,0.26 -0.34,0.5 -0.5,0.72 0.04,-0.08 0.08,-0.16 0.11,-0.25 0.39,-0.82 0.75,-1.6 1.53,-2.25l0.59 -0.49 -0.28 -0.05 -0.42 -0.07c-0.01,-0.01 -0.02,-0.04 -0.04,-0.14 -0.04,-0.17 -0.1,-0.42 -0.33,-0.64l-0.09 -0.09 -0.15 -0.01c-0.1,0 -0.19,0 -0.28,0l-0.1 0.01c-0.79,0.08 -1.32,0.6 -1.79,1.05l-0.04 0.03 -0.03 -0.12 -0.04 -0.14 -0.14 -0.06c-0.25,-0.12 -0.48,-0.16 -0.73,-0.14l-0.09 0c-0.1,0.01 -0.21,0.03 -0.35,0.06 -0.13,0.03 -0.28,0.05 -0.48,0.08 0.05,-0.07 0.59,-0.67 0.59,-0.67l-0.14 -0.21c-0.45,-0.64 -1.07,-0.95 -1.86,-0.9l-0.14 0.01c-0.29,0.03 -0.6,0.11 -0.93,0.23l-0.06 0.02c0.16,-0.52 0.33,-1.09 0.46,-1.38l0.42 -0.91 -0.99 0.49 -0.1 0.04c-0.02,-0.02 -0.04,-0.06 -0.07,-0.12 -0.09,-0.16 -0.22,-0.39 -0.52,-0.52l-0.12 -0.03 -0.11 0.01c-0.82,0.09 -1.27,0.44 -1.66,0.76 -0.06,0.05 -0.12,0.09 -0.19,0.15 0.16,-0.58 0.42,-1.23 0.66,-1.87 0.32,-0.81 0.62,-1.58 0.72,-2.2l0.11 -0.59 -0.66 0.24c-0.43,0.15 -0.74,0.26 -1,0.35 -0.19,0.07 -0.35,0.12 -0.49,0.17 -0.55,-0.1 -1.08,-0.57 -1.14,-1.12 0.09,-0.17 0.17,-0.34 0.25,-0.51 0.33,-0.66 0.63,-1.29 0.8,-1.92l0.22 -0.85 -0.86 0.51 0 -0.05c-0.01,-0.11 -0.01,-0.2 -0.03,-0.27l-0.04 -0.18 -0.21 -0.06c-0.58,-0.15 -1.04,-0.22 -1.42,-0.2l-0.12 0.01c-0.37,0.04 -0.67,0.17 -0.89,0.39 -0.45,0.43 -0.43,1.04 -0.41,1.64 0.01,0.29 0.03,0.76 -0.09,0.87l-0.07 0.02c0.02,-0.1 0.02,-0.2 -0.01,-0.31l-0.05 -0.23 -0.26 -0.03c-0.15,-0.02 -0.32,-0.04 -0.53,-0.03l-0.11 0.01 -0.16 0.02c-0.12,-0.37 -0.47,-0.46 -0.71,-0.52 -0.21,-0.06 -0.29,-0.08 -0.33,-0.25l-0.06 -0.27 -0.4 0.02 -0.12 0c-0.23,0.03 -0.42,0.08 -0.57,0.13 -0.09,0.02 -0.18,0.05 -0.26,0.06 -0.03,0 -0.08,0 -0.16,-0.03l-0.02 -0.01c0.25,-0.28 0.53,-0.62 0.53,-1.08l0 -0.26 -0.51 -0.11c-0.81,-0.17 -1.26,-0.29 -1.51,-0.38 0.16,-0.08 0.34,-0.2 0.45,-0.39 0.14,-0.1 0.21,-0.24 0.19,-0.38 -0.01,-0.09 -0.09,-0.31 -0.48,-0.29l-0.07 0.01c-0.48,0.05 -2.05,0.34 -3.02,0.56 0.12,-0.25 0.3,-0.48 0.48,-0.72 0.26,-0.34 0.54,-0.69 0.7,-1.17l0.21 -0.79 -0.73 0.37 -0.08 -0.16c-0.1,-0.22 -0.22,-0.5 -0.52,-0.63l-0.11 -0.05 -0.12 0.02c-0.92,0.11 -1.53,0.81 -2.08,1.43 -0.12,0.15 -0.25,0.3 -0.39,0.44 -0.14,-0.82 -0.32,-2.31 -0.33,-2.47l-0.03 -0.35 -0.4 0.04c-0.22,0.02 -0.37,0.1 -0.49,0.15l0 0c-0.04,-0.21 -0.01,-0.42 0.03,-0.65 0.05,-0.39 0.12,-0.88 -0.22,-1.39l-0.09 -0.12 -0.16 -0.03c-0.1,-0.02 -0.21,-0.03 -0.32,-0.02l-0.06 0c-0.24,0.03 -0.43,0.12 -0.57,0.21 -0.03,-0.12 0,-0.32 0.32,-0.64l0.25 -0.24 -0.19 -0.24c-0.49,-0.6 -1.13,-0.88 -1.92,-0.83l-0.15 0.01c-0.12,0.01 -0.24,0.03 -0.37,0.06 0.27,-0.4 0.5,-0.88 0.37,-1.49l-0.03 -0.13 -0.11 -0.07c-0.27,-0.18 -0.62,-0.26 -1.02,-0.24l-0.11 0.01c-0.45,0.05 -0.96,0.23 -1.38,0.49 -0.14,-0.37 -0.27,-0.7 -0.6,-0.97 1.07,-1.68 2.24,-3.19 3.37,-4.65 2.29,-2.95 4.45,-5.74 5.69,-9.7 1.88,-6.04 -0.23,-10.92 -2.27,-15.65 -0.62,-1.42 -1.91,-4.49 -1.91,-4.49l-0.03 -0.06 -0.06 -0.01c-0.13,-0.04 -0.47,-0.37 -0.69,-0.59 -0.18,-0.18 -0.32,-0.32 -0.41,-0.38l-0.15 -0.09 -0.19 0.04c-2.86,0.64 -10.32,13.21 -13.64,28.05 -0.08,-0.77 -0.36,-1.5 -1.51,-1.44l-0.14 0.02c-0.15,0.01 -0.31,0.04 -0.48,0.08l-0.16 0.04 -0.1 0.12c-0.61,0.7 -0.61,1.59 -0.6,2.31 0,0.17 0,0.35 -0.01,0.49 -0.34,0.06 -1.48,-3.17 -1.81,-3.01 -1.25,4.52 -2.54,-1.28 -3.57,-1.22l-0.36 0.03 -0.08 0.32c-0.36,1.46 0.08,2.64 0.6,3.76 -2.74,-2.36 -9.2,-4.65 -11.59,-5.14 -3.22,-0.66 -6.7,-0.87 -10.65,-0.64 -0.97,0.05 -1.98,0.14 -3.01,0.24 -7.07,0.76 -6.17,2.22 -11.63,3.81l-0.29 0.08 -0.05 0.26 0.15 0.17z"/>
   <path class="fil8" d="M74.35 48.67c-0.05,0.05 -0.08,0.15 -0.11,0.23 -0.07,0.79 0.02,1.34 0.25,1.66 0.31,0.43 0.8,0.26 0.83,0.22l0 0 0.01 0c0.26,0.03 0.8,-0.4 1.12,-0.91 0.75,-1.18 -0.82,-2.82 -2.1,-1.2z"/>
   <path class="fil8" d="M66.42 49.12c-0.05,0.06 -0.08,0.15 -0.11,0.24 -0.07,0.78 0.02,1.34 0.24,1.65 0.32,0.44 0.81,0.27 0.84,0.23l0 -0.01 0 0c0.27,0.04 0.81,-0.4 1.13,-0.9 0.75,-1.18 -0.82,-2.82 -2.1,-1.21z"/>
   <path class="fil4" d="M14.57 183.02c10.83,0 18.63,-4.28 18.63,-10.29 0,-3.58 -2.6,-5.58 -7.96,-5.58 -1.19,0 -2.44,0.11 -3.79,0.27l0.65 1.03c-0.98,1.3 -4.66,8.39 -7.53,14.57zm5.52 3.73c2.22,6.5 6.39,14.19 10.19,17.66 -0.65,1.41 -3.09,3.14 -4.77,3.14 -3.14,0 -5.63,-5.79 -9.48,-20.58 -0.81,0 -1.68,0 -2.11,-0.11 -0.27,-0.16 -0.54,-0.43 -0.81,-0.76 -3.85,8.4 -6.02,14.52 -7.37,21.13 -2.44,-0.54 -4.17,-2.01 -5.74,-4.77 0.98,-1.9 1.46,-2.87 9.04,-20.8 2.28,-5.36 3.2,-7.63 4.34,-12.35 -3.31,1.14 -6.34,2.61 -8.18,4.17 -1.25,-0.86 -2.92,-3.79 -3.09,-5.47 4.28,-2.92 13.16,-5.03 19.55,-5.03 8.62,0 13.65,3.84 13.65,10.02 0,6.88 -6.6,12.56 -15.22,13.75z"/>
   <path class="fil4" d="M38.78 194.45c5.74,-2.88 10.02,-7.32 10.29,-12.24 -3.95,0.54 -8.56,5.52 -10.29,12.24zm-0.43 2.05c0,0.44 -0.06,0.92 -0.06,1.41 0,1.84 0.44,4.33 2.49,4.33 3.9,0 7.64,-3.9 9.91,-6.33 0.38,0.32 0.65,0.59 0.93,0.92 -3.25,4.28 -7.43,7.36 -10.84,8.12 -4.98,-0.54 -7.9,-3.95 -7.9,-8.28 0,-8.89 8.12,-19.34 15.27,-19.34 1.62,0.22 3.19,1.25 4.66,3.09 -0.54,8.88 -5.26,12.4 -14.46,16.08z"/>
   <path class="fil4" d="M72.2 182.42c0,-1.24 0,-1.3 -0.06,-1.57 -5.2,2.22 -13,14.03 -13,19.66 0,1.84 0.82,2.82 2.44,3.09 5.09,-1.79 10.62,-12.73 10.62,-21.18zm-0.11 -2.54c-0.65,-5.74 -1.95,-9.75 -7.21,-18.15 0.49,-1.35 3.2,-3.57 5.04,-3.9 4.12,4.44 7.42,14.03 7.42,21.5 0,11.32 -8.02,25.19 -15.33,26.43 -4.98,-0.54 -7.69,-3.25 -7.69,-7.85 0,-7.47 7.26,-19.01 12.78,-20.36 1.41,0 3.53,0.97 4.99,2.33z"/>
   <path class="fil9" d="M109.46 166.34c3.14,1.13 5.36,2.6 6.12,3.3 -1.14,1.57 -4.77,8.61 -8.02,15.81 -4.11,9.16 -5.85,14.25 -5.85,16.31 0.98,0.32 2.49,0.48 4.17,0.48 11.76,0 21.56,-11.59 21.56,-24.91 0,-7.42 -4.98,-11.75 -12.84,-11.75 -1.84,0 -3.57,0.27 -5.14,0.76zm-1.46 0.48c-4.5,1.84 -7.86,5.74 -9.54,11.48 -1.62,-0.54 -3.19,-2.11 -3.63,-4.33 1.41,-6.66 8.29,-11.1 17.44,-11.1 11.54,0 19.72,7.04 19.72,17.38 0,14.09 -11.27,26.71 -24.16,26.71 -5.9,0 -10.23,-2.44 -12.35,-6.94 3.2,-7.25 11,-28.11 12.52,-33.2z"/>
   <path class="fil9" d="M138.27 198.67c0,1.73 0.7,3.63 1.41,3.84 6.44,-1.4 11.16,-8.34 11.16,-16.79 0,-1.84 -0.22,-2.87 -0.71,-3.62 -3.14,0.92 -5.69,3.25 -7.47,5.57 -2.49,3.31 -4.39,8.13 -4.39,11zm-5.14 -2.71c0,-5.79 3.73,-12.78 8.82,-16.52 1.95,-1.46 3.9,-2.22 5.58,-2.22 1.14,0.6 2.33,1.95 3.41,3.85 0.33,0 0.65,-0.06 0.98,-0.06 1.95,0 2.87,1.63 2.87,5.09 0,9.05 -6.23,16.79 -14.89,18.64 -4.12,-0.44 -6.77,-3.9 -6.77,-8.78z"/>
   <path class="fil9" d="M170.66 181.77c-1.63,3.95 -7.31,11.65 -7.75,14.95 2.28,-2.44 5.96,-6.99 7.21,-8.29 2.76,-2.92 7.85,-8.28 11.37,-8.28 1.84,0 3.14,1.57 3.85,2.92 0,0.16 -0.6,0.22 -1.57,1.36 -1.95,2.54 -5.64,9.69 -5.64,14.13 0,1.79 0.49,2.11 1.36,2.11 0.76,0 1.78,-0.54 2.27,-0.54 0.27,0.16 0.49,0.76 0.49,1.08 -1.08,0.98 -3.41,2.23 -4.66,2.23 -4.17,0 -5.14,-2.55 -5.14,-5.75 0,-1.78 0.48,-4 2.98,-9.75 -0.17,0 -2.28,1.03 -4.39,3.09 -3.36,3.25 -5.91,6.23 -8.72,10.13 -1.57,2.22 -2.76,3.9 -3.63,4.39 -1.52,-0.87 -2.17,-2.6 -2.49,-4.23 0,-2.7 1.62,-8.77 4.06,-14.35 2.76,-6.34 5.31,-10.13 5.9,-10.4 1.9,0.6 3.74,2.82 4.5,5.2z"/>
   <path class="fil9" d="M205.48 157.78c2.01,0.16 5.09,3.52 5.09,5.52 -6.5,5.2 -13.75,16.9 -17.17,27.52 4.66,-8.02 10.24,-13.11 14.57,-13.27 1.58,1.13 2.39,2.7 2.39,4.6 0,4.6 -4.06,9.8 -8.34,10.67 1.46,4.98 4.38,10.83 9.42,13.7 -0.65,1.46 -3.14,2.93 -5.52,2.93 -1.95,0 -3.69,-2.06 -5.04,-5.69 -1.08,-2.92 -2.17,-7.31 -2.92,-11.75 0.97,-0.65 2.6,-2.01 4.27,-3.63 3.14,-3.03 4.77,-5.69 4.77,-7.96 0,-0.22 -0.27,-0.44 -0.6,-0.44 -2.87,0.11 -8.12,5.58 -12.29,12.84 -1.68,2.92 -2.98,7.74 -2.98,11.05 0,0.43 0.05,0.92 0.16,1.24 -1.13,-0.1 -1.78,-0.37 -2.05,-0.86 -0.55,-0.87 -0.93,-1.41 -1.36,-1.73 -0.65,-0.49 -1.14,-2.23 -1.14,-4.77 0,-7.85 13.27,-36.18 18.74,-39.97z"/>
   <path class="fil9" d="M218.64 194.45c5.75,-2.88 10.02,-7.32 10.29,-12.24 -3.95,0.54 -8.55,5.52 -10.29,12.24zm-0.43 2.05c0,0.44 -0.05,0.92 -0.05,1.41 0,1.84 0.43,4.33 2.49,4.33 3.9,0 7.63,-3.9 9.91,-6.33 0.38,0.32 0.65,0.59 0.92,0.92 -3.25,4.28 -7.42,7.36 -10.83,8.12 -4.98,-0.54 -7.91,-3.95 -7.91,-8.28 0,-8.89 8.12,-19.34 15.27,-19.34 1.63,0.22 3.2,1.25 4.66,3.09 -0.54,8.88 -5.25,12.4 -14.46,16.08z"/>
   <path class="fil9" d="M243.77 217.03c-3.3,3.47 -6.93,5.36 -10.45,5.36 -3.57,0 -7.42,-1.73 -8.5,-3.74 0,-0.43 0.32,-0.86 0.76,-1.13 1.68,1.51 2.22,1.78 3.84,1.78 8.23,0 16.03,-10.02 20.1,-25.61 -1.85,2.92 -5.8,9.04 -9.16,10.23 -2.27,-0.11 -5.36,-1.68 -5.96,-4.22 0,-2.06 0.11,-3.09 0.49,-4.61 1.36,-5.47 5.2,-14.62 9.7,-17.92 1.19,0 3.68,0.43 4.93,1.68 -0.82,0.7 -3.8,4.82 -7.05,12.51 -0.65,1.62 -2.27,6.55 -2.27,8.45 0,0.54 0.27,0.86 0.38,0.97 1.3,-0.22 3.57,-2.06 6.28,-6.06 3.41,-5.15 5.63,-10.19 9.15,-15.98 1.9,0 4.61,0.92 5.26,1.73 -2.22,4.71 -4.23,9.26 -5.74,13.97 -3.25,10.57 -6.5,17.12 -11.76,22.59z"/>
   <path class="fil10" d="M27.06 220.25l0 1.13c0.09,0.43 0.31,0.83 0.67,1.19 0.49,0.48 1.08,0.73 1.76,0.73 0.69,0 1.28,-0.25 1.77,-0.73 0.48,-0.48 0.73,-1.07 0.73,-1.76 0,-0.69 -0.25,-1.27 -0.73,-1.76 -0.49,-0.49 -1.08,-0.73 -1.77,-0.73 -0.68,0 -1.27,0.24 -1.76,0.73 -0.36,0.36 -0.58,0.76 -0.67,1.2zm0 3.46l0 0.89 -1.45 0 0 -11.17 1.45 0 0 4.48c0.7,-0.72 1.51,-1.08 2.43,-1.08 1.1,0 2.04,0.39 2.82,1.16 0.77,0.78 1.16,1.72 1.16,2.82 0,1.1 -0.39,2.04 -1.16,2.81 -0.78,0.78 -1.72,1.17 -2.82,1.17 -0.92,0 -1.73,-0.36 -2.43,-1.08z"/>
   <path class="fil10" d="M43.05 221.35l0 -1.06c-0.09,-0.46 -0.31,-0.87 -0.67,-1.23 -0.49,-0.49 -1.08,-0.73 -1.76,-0.73 -0.69,0 -1.28,0.24 -1.77,0.73 -0.48,0.48 -0.73,1.07 -0.73,1.76 0,0.68 0.25,1.27 0.73,1.75 0.49,0.49 1.08,0.73 1.77,0.73 0.68,0 1.27,-0.24 1.76,-0.72 0.36,-0.37 0.58,-0.78 0.67,-1.23zm0 -3.43l0 -0.5 1.45 0 0 7.19 -1.45 0 0 -0.9c-0.7,0.72 -1.51,1.08 -2.43,1.08 -1.1,0 -2.04,-0.39 -2.81,-1.16 -0.78,-0.78 -1.17,-1.71 -1.17,-2.81 0,-1.1 0.39,-2.04 1.17,-2.81 0.77,-0.78 1.71,-1.17 2.81,-1.17 0.92,0 1.73,0.36 2.43,1.08z"/>
   <path class="fil10" d="M53.72 222.14l1.45 0.51c-0.35,0.49 -0.61,0.82 -0.77,0.97 -0.78,0.78 -1.71,1.17 -2.81,1.17 -1.1,0 -2.03,-0.39 -2.81,-1.17 -0.78,-0.77 -1.17,-1.71 -1.17,-2.81 0,-1.1 0.39,-2.04 1.17,-2.82 0.78,-0.77 1.71,-1.16 2.81,-1.16 1.1,0 2.03,0.39 2.81,1.16 0.16,0.16 0.42,0.48 0.77,0.96l-1.45 0.53c-0.18,-0.23 -0.31,-0.37 -0.37,-0.44 -0.49,-0.48 -1.07,-0.72 -1.76,-0.72 -0.69,0 -1.27,0.24 -1.76,0.73 -0.49,0.48 -0.73,1.07 -0.73,1.76 0,0.68 0.24,1.27 0.73,1.76 0.49,0.48 1.07,0.73 1.76,0.73 0.69,0 1.28,-0.25 1.76,-0.73 0.06,-0.07 0.19,-0.21 0.37,-0.43z"/>
   <polygon class="fil10" points="62.61,217.42 60.66,219.82 63.37,224.6 61.64,224.6 59.69,221.02 59.62,221.1 59.62,224.6 58.17,224.6 58.17,214.72 59.62,214.72 59.62,218.78 60.74,217.42 "/>
   <path class="fil10" d="M67.65 223.06c0.17,0.17 0.37,0.25 0.61,0.25 0.24,0 0.44,-0.08 0.61,-0.25 0.17,-0.17 0.26,-0.38 0.26,-0.62 0,-0.24 -0.09,-0.44 -0.25,-0.61 -0.12,-0.12 -0.37,-0.3 -0.75,-0.54 -0.52,-0.28 -0.89,-0.53 -1.11,-0.75 -0.38,-0.38 -0.57,-0.84 -0.57,-1.38 0,-0.54 0.19,-1 0.57,-1.39 0.38,-0.38 0.84,-0.57 1.38,-0.57 0.54,0 0.99,0.18 1.35,0.54 0.25,0.26 0.42,0.55 0.49,0.86l-1.41 0.41c-0.03,-0.12 -0.06,-0.2 -0.09,-0.23 -0.09,-0.09 -0.2,-0.13 -0.34,-0.13 -0.14,0 -0.26,0.05 -0.36,0.15 -0.1,0.1 -0.15,0.22 -0.15,0.36 0,0.14 0.05,0.26 0.15,0.36 0.09,0.08 0.29,0.22 0.6,0.42 0.58,0.32 0.99,0.61 1.25,0.87 0.46,0.46 0.68,1 0.68,1.63 0,0.64 -0.22,1.19 -0.67,1.64 -0.45,0.45 -1,0.68 -1.64,0.68 -0.64,0 -1.18,-0.23 -1.63,-0.68 -0.32,-0.31 -0.52,-0.7 -0.62,-1.17l1.44 -0.31c0.04,0.22 0.11,0.37 0.2,0.46z"/>
   <polygon class="fil10" points="74.76,217.42 74.76,214.72 76.21,214.72 76.21,217.42 77.5,217.42 77.5,218.86 76.21,218.86 76.21,224.6 74.76,224.6 74.76,218.86 73.47,218.86 73.47,217.42 "/>
   <path class="fil10" d="M86.84 221.35l0 -1.06c-0.08,-0.46 -0.31,-0.87 -0.67,-1.23 -0.49,-0.49 -1.07,-0.73 -1.76,-0.73 -0.69,0 -1.28,0.24 -1.76,0.73 -0.49,0.48 -0.73,1.07 -0.73,1.76 0,0.68 0.24,1.27 0.73,1.75 0.48,0.49 1.07,0.73 1.76,0.73 0.69,0 1.27,-0.24 1.76,-0.72 0.36,-0.37 0.59,-0.78 0.67,-1.23zm0 -3.43l0 -0.5 1.45 0 0 7.19 -1.45 0 0 -0.9c-0.7,0.72 -1.51,1.08 -2.43,1.08 -1.1,0 -2.04,-0.39 -2.81,-1.16 -0.78,-0.78 -1.16,-1.71 -1.16,-2.81 0,-1.1 0.38,-2.04 1.16,-2.81 0.77,-0.78 1.71,-1.17 2.81,-1.17 0.92,0 1.73,0.36 2.43,1.08z"/>
   <path class="fil10" d="M98.05 220.25c-0.08,-0.44 -0.31,-0.84 -0.67,-1.2 -0.48,-0.49 -1.07,-0.73 -1.76,-0.73 -0.68,0 -1.27,0.24 -1.76,0.73 -0.48,0.49 -0.73,1.07 -0.73,1.76 0,0.69 0.25,1.28 0.73,1.76 0.49,0.49 1.08,0.73 1.76,0.73 0.69,0 1.28,-0.24 1.76,-0.72 0.36,-0.36 0.59,-0.76 0.67,-1.19l0 -1.14zm0.01 -2.34l0 -0.49 1.45 0 0 5.34c0,1.39 -0.37,2.47 -1.13,3.23 -0.78,0.69 -1.72,1.03 -2.82,1.03 -1.1,0 -2.04,-0.34 -2.81,-1.03 -0.16,-0.16 -0.41,-0.48 -0.76,-0.96l1.44 -0.52c0.18,0.22 0.31,0.37 0.37,0.43 0.49,0.49 1.08,0.73 1.76,0.73 1.15,0 1.95,-0.75 2.39,-2.26 -0.45,0.87 -1.23,1.31 -2.33,1.31 -1.09,0 -2.03,-0.38 -2.81,-1.13 -0.77,-0.76 -1.16,-1.68 -1.16,-2.78 0,-1.1 0.39,-2.04 1.16,-2.81 0.78,-0.78 1.72,-1.16 2.81,-1.16 0.93,0 1.74,0.35 2.44,1.07z"/>
   <path class="fil10" d="M107.72 218.5c-0.16,-0.12 -0.53,-0.18 -1.1,-0.18 -0.68,0 -1.27,0.24 -1.75,0.73 -0.49,0.48 -0.73,1.07 -0.73,1.76 0,0.56 0.06,0.93 0.18,1.1l3.4 -3.41zm-2.42 4.47c0.24,0.22 0.68,0.33 1.32,0.33 0.69,0 1.28,-0.25 1.77,-0.73 0.06,-0.07 0.18,-0.21 0.37,-0.43l1.44 0.51c-0.35,0.49 -0.61,0.82 -0.76,0.97 -0.78,0.78 -1.72,1.17 -2.82,1.17 -1.09,0 -2.03,-0.39 -2.8,-1.17 -0.78,-0.77 -1.17,-1.71 -1.17,-2.81 0,-1.1 0.39,-2.04 1.17,-2.82 0.77,-0.77 1.71,-1.16 2.8,-1.16 0.94,0 1.77,0.28 2.47,0.85 0.12,0.1 0.23,0.2 0.35,0.31 0.04,0.05 0.18,0.2 0.39,0.44l-0.72 0.74 -3.81 3.8z"/>
   <path class="fil10" d="M119.69 217.42l1.44 0 0 0.67c0.28,-0.71 0.82,-1.06 1.61,-1.06 0.8,0 1.24,0.4 1.34,1.2 0.23,-0.8 0.85,-1.2 1.88,-1.2 1.02,0 1.53,0.62 1.53,1.85l0 5.72 -1.46 0 0 -5.05c0,-0.71 -0.28,-1.07 -0.86,-1.07 -0.23,0 -0.44,0.09 -0.61,0.26 -0.17,0.16 -0.26,0.73 -0.26,1.68l0 4.18 -1.44 0 0 -5.05c0,-0.71 -0.29,-1.07 -0.86,-1.07 -0.24,0 -0.45,0.09 -0.62,0.26 -0.15,0.14 -0.23,0.52 -0.25,1.14l0 4.72 -1.44 0 0 -7.18z"/>
   <path class="fil10" d="M137.25 221.35l0 -1.06c-0.09,-0.46 -0.31,-0.87 -0.67,-1.23 -0.49,-0.49 -1.08,-0.73 -1.76,-0.73 -0.69,0 -1.28,0.24 -1.77,0.73 -0.48,0.48 -0.73,1.07 -0.73,1.76 0,0.68 0.25,1.27 0.73,1.75 0.49,0.49 1.08,0.73 1.77,0.73 0.68,0 1.27,-0.24 1.76,-0.72 0.36,-0.37 0.58,-0.78 0.67,-1.23zm0 -3.43l0 -0.5 1.45 0 0 7.19 -1.45 0 0 -0.9c-0.7,0.72 -1.51,1.08 -2.43,1.08 -1.1,0 -2.04,-0.39 -2.81,-1.16 -0.78,-0.78 -1.17,-1.71 -1.17,-2.81 0,-1.1 0.39,-2.04 1.17,-2.81 0.77,-0.78 1.71,-1.17 2.81,-1.17 0.92,0 1.73,0.36 2.43,1.08z"/>
   <path class="fil10" d="M143.68 219.34l0 5.26 -1.45 0 0 -7.18 1.45 0 0 0.83c0.31,-0.82 0.91,-1.23 1.83,-1.23 0.78,0 1.39,0.28 1.85,0.83 0.46,0.55 0.7,1.25 0.71,2.08l0 4.67 -1.45 0 0 -4.61c0,-0.42 -0.15,-0.77 -0.45,-1.07 -0.3,-0.3 -0.66,-0.44 -1.08,-0.44 -0.42,0 -0.77,0.14 -1.08,0.43 -0.16,0.17 -0.27,0.32 -0.33,0.43z"/>
   <path class="fil10" d="M157.85 221.35l0 -1.06c-0.09,-0.46 -0.31,-0.87 -0.67,-1.23 -0.49,-0.49 -1.08,-0.73 -1.76,-0.73 -0.69,0 -1.28,0.24 -1.77,0.73 -0.48,0.48 -0.73,1.07 -0.73,1.76 0,0.68 0.25,1.27 0.73,1.75 0.49,0.49 1.08,0.73 1.77,0.73 0.68,0 1.27,-0.24 1.76,-0.72 0.36,-0.37 0.58,-0.78 0.67,-1.23zm0 -3.43l0 -0.5 1.45 0 0 7.19 -1.45 0 0 -0.9c-0.7,0.72 -1.51,1.08 -2.43,1.08 -1.1,0 -2.04,-0.39 -2.82,-1.16 -0.77,-0.78 -1.16,-1.71 -1.16,-2.81 0,-1.1 0.39,-2.04 1.16,-2.81 0.78,-0.78 1.72,-1.17 2.82,-1.17 0.92,0 1.73,0.36 2.43,1.08z"/>
   <path class="fil10" d="M169.06 220.25c-0.09,-0.44 -0.31,-0.84 -0.67,-1.2 -0.48,-0.49 -1.07,-0.73 -1.76,-0.73 -0.69,0 -1.28,0.24 -1.76,0.73 -0.49,0.49 -0.73,1.07 -0.73,1.76 0,0.69 0.24,1.28 0.73,1.76 0.48,0.49 1.07,0.73 1.76,0.73 0.69,0 1.28,-0.24 1.76,-0.72 0.36,-0.36 0.58,-0.76 0.67,-1.19l0 -1.14zm0.01 -2.34l0 -0.49 1.45 0 0 5.34c0,1.39 -0.38,2.47 -1.14,3.23 -0.78,0.69 -1.71,1.03 -2.81,1.03 -1.1,0 -2.04,-0.34 -2.82,-1.03 -0.16,-0.16 -0.41,-0.48 -0.76,-0.96l1.44 -0.52c0.19,0.22 0.31,0.37 0.38,0.43 0.49,0.49 1.07,0.73 1.76,0.73 1.15,0 1.94,-0.75 2.38,-2.26 -0.45,0.87 -1.22,1.31 -2.32,1.31 -1.1,0 -2.04,-0.38 -2.81,-1.13 -0.78,-0.76 -1.16,-1.68 -1.16,-2.78 0,-1.1 0.38,-2.04 1.16,-2.81 0.77,-0.78 1.71,-1.16 2.81,-1.16 0.93,0 1.74,0.35 2.44,1.07z"/>
   <path class="fil10" d="M178.72 218.5c-0.16,-0.12 -0.52,-0.18 -1.09,-0.18 -0.69,0 -1.27,0.24 -1.76,0.73 -0.49,0.48 -0.73,1.07 -0.73,1.76 0,0.56 0.06,0.93 0.19,1.1l3.39 -3.41zm-2.41 4.47c0.24,0.22 0.68,0.33 1.32,0.33 0.69,0 1.28,-0.25 1.76,-0.73 0.06,-0.07 0.19,-0.21 0.37,-0.43l1.45 0.51c-0.35,0.49 -0.61,0.82 -0.77,0.97 -0.78,0.78 -1.71,1.17 -2.81,1.17 -1.1,0 -2.03,-0.39 -2.81,-1.17 -0.78,-0.77 -1.17,-1.71 -1.17,-2.81 0,-1.1 0.39,-2.04 1.17,-2.82 0.78,-0.77 1.71,-1.16 2.81,-1.16 0.94,0 1.76,0.28 2.47,0.85 0.12,0.1 0.23,0.2 0.34,0.31 0.05,0.05 0.18,0.2 0.4,0.44l-0.73 0.74 -3.8 3.8z"/>
   <path class="fil10" d="M184.32 217.42l1.44 0 0 0.67c0.28,-0.71 0.82,-1.06 1.61,-1.06 0.8,0 1.24,0.4 1.34,1.2 0.23,-0.8 0.86,-1.2 1.88,-1.2 1.02,0 1.53,0.62 1.53,1.85l0 5.72 -1.46 0 0 -5.05c0,-0.71 -0.28,-1.07 -0.86,-1.07 -0.23,0 -0.44,0.09 -0.61,0.26 -0.17,0.16 -0.26,0.73 -0.26,1.68l0 4.18 -1.44 0 0 -5.05c0,-0.71 -0.28,-1.07 -0.86,-1.07 -0.24,0 -0.44,0.09 -0.62,0.26 -0.15,0.14 -0.23,0.52 -0.25,1.14l0 4.72 -1.44 0 0 -7.18z"/>
   <path class="fil10" d="M200.3 218.5c-0.16,-0.12 -0.53,-0.18 -1.1,-0.18 -0.68,0 -1.27,0.24 -1.75,0.73 -0.49,0.48 -0.73,1.07 -0.73,1.76 0,0.56 0.06,0.93 0.19,1.1l3.39 -3.41zm-2.42 4.47c0.25,0.22 0.69,0.33 1.32,0.33 0.69,0 1.28,-0.25 1.77,-0.73 0.06,-0.07 0.18,-0.21 0.37,-0.43l1.45 0.51c-0.36,0.49 -0.61,0.82 -0.77,0.97 -0.78,0.78 -1.72,1.17 -2.82,1.17 -1.09,0 -2.03,-0.39 -2.8,-1.17 -0.78,-0.77 -1.17,-1.71 -1.17,-2.81 0,-1.1 0.39,-2.04 1.17,-2.82 0.77,-0.77 1.71,-1.16 2.8,-1.16 0.94,0 1.77,0.28 2.48,0.85 0.11,0.1 0.23,0.2 0.34,0.31 0.04,0.05 0.18,0.2 0.4,0.44l-0.73 0.74 -3.81 3.8z"/>
   <path class="fil10" d="M207.34 219.34l0 5.26 -1.45 0 0 -7.18 1.45 0 0 0.83c0.31,-0.82 0.91,-1.23 1.83,-1.23 0.77,0 1.39,0.28 1.85,0.83 0.46,0.55 0.7,1.25 0.71,2.08l0 4.67 -1.45 0 0 -4.61c0,-0.42 -0.15,-0.77 -0.45,-1.07 -0.3,-0.3 -0.66,-0.44 -1.08,-0.44 -0.42,0 -0.77,0.14 -1.08,0.43 -0.17,0.17 -0.27,0.32 -0.33,0.43z"/>
   <polygon class="fil10" points="216.15,217.42 216.15,214.72 217.59,214.72 217.59,217.42 218.89,217.42 218.89,218.86 217.59,218.86 217.59,224.6 216.15,224.6 216.15,218.86 214.86,218.86 214.86,217.42 "/>
  </g>
 </g>
</svg>
