<?xml version="1.0" encoding="UTF-8" standalone="no"?>
<svg
   xmlns:dc="http://purl.org/dc/elements/1.1/"
   xmlns:cc="http://creativecommons.org/ns#"
   xmlns:rdf="http://www.w3.org/1999/02/22-rdf-syntax-ns#"
   xmlns:svg="http://www.w3.org/2000/svg"
   xmlns="http://www.w3.org/2000/svg"
   xmlns:sodipodi="http://sodipodi.sourceforge.net/DTD/sodipodi-0.dtd"
   xmlns:inkscape="http://www.inkscape.org/namespaces/inkscape"
   width="70.712822mm"
   height="62.108681mm"
   viewBox="0 0 70.712822 62.10868"
   version="1.1"
   id="svg7947"
   inkscape:version="1.0.1 (3bc2e813f5, 2020-09-07)"
   sodipodi:docname="BTA Logo.svg">
  <defs
     id="defs7941" />
  <sodipodi:namedview
     id="base"
     pagecolor="#ffffff"
     bordercolor="#666666"
     borderopacity="1.0"
     inkscape:pageopacity="0.0"
     inkscape:pageshadow="2"
     inkscape:zoom="1.9137503"
     inkscape:cx="154.2996"
     inkscape:cy="122.44156"
     inkscape:document-units="mm"
     inkscape:current-layer="layer1"
     inkscape:document-rotation="0"
     showgrid="false"
     inkscape:object-paths="true"
     showguides="false"
     inkscape:window-width="1920"
     inkscape:window-height="1001"
     inkscape:window-x="-9"
     inkscape:window-y="-9"
     inkscape:window-maximized="1">
    <sodipodi:guide
       position="13.883075,4.0173943"
       orientation="1,0"
       id="guide8567" />
  </sodipodi:namedview>
  <metadata
     id="metadata7944">
    <rdf:RDF>
      <cc:Work
         rdf:about="">
        <dc:format>image/svg+xml</dc:format>
        <dc:type
           rdf:resource="http://purl.org/dc/dcmitype/StillImage" />
        <dc:title></dc:title>
      </cc:Work>
    </rdf:RDF>
  </metadata>
  <g
     inkscape:label="Layer 1"
     inkscape:groupmode="layer"
     id="layer1"
     transform="translate(-109.32871,-101.99723)">
    <path
       id="path8524"
       style="fill:#ffffff;fill-opacity:1;fill-rule:evenodd;stroke:#ffffff;stroke-width:1.59304;paint-order:fill markers stroke"
       d="M 140,5.7949219 A 132.83163,116.57418 0 0 0 68.326172,24.222656 C 117.37102,48.690864 164.69508,48.207488 210.34766,23.488281 A 132.83163,116.57418 0 0 0 140,5.7949219 Z M 216.55859,27.107422 C 165.02957,55.968008 113.68266,55.022516 62.494141,27.699219 A 132.83163,116.57418 0 0 0 38.773438,46.890625 C 107.00884,74.787658 173.87242,75.519055 239.15234,44.798828 A 132.83163,116.57418 0 0 0 216.55859,27.107422 Z m 28.01953,23.388672 C 177.35507,80.79025 102.40455,82.978579 33.986328,52.134766 a 132.83163,116.57418 0 0 0 -21.9375,38.93164 l 0.583984,0.08984 c 12.490133,-0.04457 24.978621,-0.08825 37.46875,-0.132812 12.603055,0.03785 25.26831,-0.257686 37.837891,-0.01172 0.56034,3.089945 0.07093,6.42354 0.236328,9.605466 -0.463049,3.8882 0.969634,8.42785 -1.103515,11.95898 -2.675046,1.69452 -6.309886,0.58803 -9.267578,0.83789 -0.509795,-3.43013 0.331101,-7.76113 -2.464844,-10.52929 -2.865065,-2.40791 -7.159262,-0.85118 -10.560547,-1.37696 -6.661244,0.21363 -13.554402,-0.484 -20.0625,0.65625 -0.825497,4.56478 -0.451332,9.53091 -0.191406,14.20313 6.836668,0.402 14.089901,0.1604 21.089843,0.35742 5.91853,0.50739 13.550483,-0.8477 17.712891,4.50782 0.04174,0.0465 0.07827,0.0956 0.119141,0.14258 h 50.005854 c 0.10797,-6.49385 0.39656,-12.99015 0.0957,-19.46484 -0.94046,-0.61138 -2.43392,-0.17437 -3.54102,-0.39844 -4.99341,0.12302 -10.12484,-0.54527 -14.99023,0.64258 -2.16122,0.89314 -2.9207,3.27116 -2.58985,5.45703 -0.29608,1.72299 0.56266,4.17413 -0.97656,5.41406 -3.12061,0.64173 -6.46963,0.20668 -9.60742,0.0586 -0.76237,-3.94629 -1.78393,-21.88748 -0.004,-22.16211 12.88205,-0.682252 26.31734,-0.173852 39.2168,-0.318359 12.01193,0.04555 24.03162,-0.114499 36.04102,0.167968 1.60468,-0.08394 3.99491,0.173362 3.8789,2.3125 0.23804,6.56492 0.13896,13.206671 -0.14062,19.736331 -3.49776,0.42014 -7.26781,0.24265 -10.81055,0.0879 -0.55352,-2.14672 -0.18977,-4.51829 -0.38867,-6.75586 0.43192,-2.61372 -2.23148,-4.68313 -4.66797,-4.49023 -5.44634,-0.10622 -11.03144,-0.61316 -16.40625,0.043 -0.42741,6.53492 -0.10882,13.12895 0.17773,19.66992 h 54.44727 c 1.43071,-2.64914 3.05269,-5.22291 3.95117,-8.11523 1.05985,-3.7222 3.98554,-7.12122 3.92774,-11.0586 -3.82774,-1.50321 -8.28151,-0.42239 -12.33985,-0.80078 -2.02571,-0.31061 -6.05087,0.902 -6.10937,-2.281254 0.16613,-2.541558 -0.82905,-5.925106 0.9375,-7.976563 11.79352,-0.553215 23.62342,-0.43676 35.43164,-0.595703 11.69017,0.01647 23.45074,-0.334942 35.10156,-0.08789 0.38533,3.408759 -0.0106,7.086428 -0.20117,10.54102 -6.11311,0.67195 -12.47711,0.046 -18.65625,0.69727 -0.32235,2.62848 1.47575,5.26542 2.41015,7.69921 1.56005,4.12114 3.95418,7.95075 5.76758,11.97852 h 19.41797 A 132.83163,116.57418 0 0 0 244.57812,50.496094 Z M 9.6386719,101.26367 c -0.1348694,0.026 -0.1453098,0.0283 -0.2832031,0.0547 A 132.83163,116.57418 0 0 0 7.1738281,121.375 H 28.9375 c 0.384115,-1.87486 0.748313,-3.74391 0.529297,-5.74805 -0.38098,-4.52803 1.106939,-9.64731 -1.509766,-13.67968 -2.634346,-1.06114 -6.382555,-0.13918 -9.439453,-0.44727 -1.464754,-0.25098 -3.272136,0.0182 -4.960937,0.0977 v 0.004 l -0.04297,-0.004 c -1.023649,0.0462 -1.999796,0.0176 -2.826172,-0.24414 z m 218.6777381,2.93945 c -1.24702,0.0559 -1.82509,1.59409 -2.47266,2.4375 -1.65057,4.71575 -4.20233,9.10144 -6.13086,13.73047 5.60358,0.35155 11.33053,0.57285 16.91211,-0.0332 -0.58111,-2.91569 -2.36453,-5.87061 -3.70312,-8.66211 -1.76293,-2.27858 -1.75347,-6.29413 -4.60547,-7.47266 z M 7.2539062,126.55078 A 132.83163,116.57418 0 0 0 32.869141,191.28516 C 100.54215,159.23567 178.82395,160.02288 246.79883,191.6875 a 132.83163,116.57418 0 0 0 22.32422,-41.96289 c -0.58369,-0.0554 -1.19679,-0.21474 -1.67774,-0.32031 -8.45915,0.89929 -17.12197,0.38041 -25.65039,0.27539 -2.96482,-0.84437 -5.78851,1.04142 -8.79883,0.29297 -0.47511,-3.47178 -0.23162,-7.24022 -0.11132,-10.76954 4.13439,-0.809 8.71292,0.45521 12.78906,-0.75195 -0.0966,-2.65115 -2.64384,-4.83007 -3.82422,-7.16601 -8.92866,0.13098 -17.90269,-0.31512 -26.78906,0.41992 -2.08026,1.52301 -3.05748,4.46044 -3.87891,6.86328 3.98839,0.87821 8.46976,0.0527 12.60156,0.51172 0.62124,3.46333 0.33588,7.2482 0.12696,10.78125 -9.38931,0.53195 -19.01098,0.11298 -28.49219,0.20898 -4.13352,-0.3561 -8.6493,0.52104 -12.58594,-0.82812 -1.15082,-2.84029 -0.99162,-6.3252 -0.13281,-9.23828 2.93279,-2.03469 7.00738,-0.32022 10.28516,-1.55664 4.25104,-1.67579 5.42296,-6.80583 7.61328,-10.35352 0.0903,-0.5264 0.2171,-1.03837 0.35937,-1.54297 h -52.30859 c -0.39741,1.91776 -0.39488,3.91202 -0.37696,5.92774 0.33603,1.86135 -0.82636,4.71813 1.05274,5.95898 4.84163,0.96925 9.88814,0.35692 14.80469,0.70898 3.07102,-0.77886 1.83305,2.93389 2.06445,4.69727 -0.39475,1.92938 0.79574,4.74621 -0.59766,6.14258 -16.06862,0.0636 -32.13841,0.12655 -48.20703,0.18945 -1.52957,-1.36221 -1.79908,-3.94607 -1.53711,-5.9707 1.02944,-1.30928 -0.43292,-3.11713 0.6875,-4.39258 2.57202,-1.39676 5.76657,-0.5541 8.58203,-0.81836 2.58936,-0.28036 5.59741,0.64729 7.94727,-0.68945 1.09025,-2.59505 0.15238,-5.62548 0.41016,-8.36914 -0.037,-1.12769 -0.0558,-2.25644 -0.0645,-3.38477 H 86.167969 c 0.700873,2.46468 0.838864,5.11335 0.658203,7.69336 0.837596,7.42957 -5.29375,14.11415 -12.394531,15.36914 -17.573138,1.12858 -35.227268,0.78508 -52.830079,0.54492 -2.321836,-0.58672 -6.093956,0.93599 -7.425781,-1.70898 -0.341851,-2.56725 -1.032927,-5.6993 0.328125,-8.02539 3.855172,-1.8857 8.530653,-0.67399 12.673828,-1.59571 3.453728,-0.63249 1.968484,-5.08212 2.308594,-7.54687 0.330892,-1.73959 -0.316981,-3.20205 -0.738281,-4.73047 z m 248.0136738,0 c 0.0644,0.25919 0.13219,0.51699 0.1875,0.7793 0.98359,0.44008 0.77635,1.78533 1.31054,2.4707 1.73545,3.10811 2.62482,7.48678 6.66407,8.49414 2.51291,1.11381 5.53044,0.12188 8.02343,0.83008 a 132.83163,116.57418 0 0 0 1.29493,-12.57422 z m -189.873049,1.01758 c -3.077494,-0.0286 -6.216503,0.14003 -9.261719,0.0195 -3.952196,0.1573 -7.999337,-0.24191 -11.871093,0.54688 0.0893,3.53628 0.178618,7.07307 0.267578,10.60937 7.973797,0.63355 16.017825,0.50066 24,-0.006 2.463624,0.21124 5.263229,-0.87299 5.898437,-3.5664 1.503755,-3.03023 -0.972341,-5.95835 -3.595703,-7.23438 -1.767993,-0.26402 -3.591003,-0.35196 -5.4375,-0.36914 z m 75.332029,46.34766 c -34.2929,0.10998 -68.952326,7.91699 -103.07031,22.61523 l -0.117188,0.0273 a 132.83163,116.57418 0 0 0 23.359376,19.46289 132.83163,116.57418 0 0 0 0.002,0 c 51.754552,-27.6249 103.672492,-28.30663 155.775392,1.54102 a 132.83163,116.57418 0 0 0 24.90625,-20.08008 C 208.94226,181.39422 175.0189,173.80787 140.72656,173.91797 Z m -0.85351,27.5 c -23.97657,-0.3001 -48.388622,5.71236 -73.242191,18.1289 A 132.83163,116.57418 0 0 0 140,238.94336 132.83163,116.57418 0 0 0 210.5,221.16797 C 187.38819,208.3288 163.84958,201.71615 139.87305,201.41602 Z"
       transform="matrix(0.26458333,0,0,0.26458333,107.64347,100.67474)" />
  </g>
</svg>
