<?xml version="1.0" encoding="UTF-8"?><svg style="background:transparent" id="Layer_1" xmlns="http://www.w3.org/2000/svg" viewBox="25 462 1150 276"><defs><style>.cls-1{fill:#e30613;}.cls-2{fill:#153d8a;}</style></defs><path class="cls-2" d="m148.35,654.5c-3.9,0-7.01-1.14-9.24-3.38-1.84-1.84-4.18-4.97-7.16-9.58l-20.49-33.67-10.13,9.59v18.85c0,5.67-1.58,10.16-4.69,13.35-3.14,3.21-6.83,4.84-10.98,4.84-4.79,0-8.63-1.66-11.44-4.93-2.69-3.14-4.05-7.66-4.05-13.44v-107.99c0-6.25,1.29-11.17,3.83-14.61,2.74-3.73,6.67-5.61,11.67-5.61s8.66,1.69,11.53,5.02c2.76,3.2,4.15,7.82,4.15,13.72v54l23.36-24.5c3.68-3.87,6.45-6.47,8.46-7.95,2.37-1.74,5.24-2.62,8.53-2.62,3.93,0,7.27,1.29,9.94,3.84,2.7,2.59,4.07,5.85,4.07,9.71,0,4.7-3.58,10.12-11.28,17.05l-11.6,10.64,24.64,38.72c1.99,3.15,3.38,5.47,4.25,7.12,1.06,2,1.6,3.98,1.6,5.89,0,4.79-1.38,8.67-4.11,11.55-2.77,2.92-6.41,4.41-10.83,4.41Z"/><path class="cls-2" d="m251.54,654.5c-4.33,0-7.95-1.59-10.79-4.74-1.97-2.19-3.25-4.97-3.81-8.31-1.66,1.67-3.36,3.19-5.1,4.53-3.6,2.8-7.59,4.91-11.86,6.28-4.23,1.36-9.1,2.04-14.45,2.04-6.58,0-12.58-1.39-17.84-4.14-5.33-2.78-9.52-6.68-12.45-11.6-3.47-5.92-5.15-14-5.15-24.71v-50.19c0-5.81,1.42-10.31,4.21-13.37,2.86-3.13,6.66-4.72,11.28-4.72s8.53,1.6,11.45,4.75c2.87,3.09,4.32,7.58,4.32,13.34v40.54c0,5.61.47,10.35,1.4,14.08.85,3.42,2.29,5.99,4.41,7.85,2.02,1.78,4.8,2.65,8.48,2.65s7.1-1.08,10.4-3.3c3.32-2.23,5.66-5.05,7.18-8.62.85-2.15,1.9-7.84,1.9-22.41v-30.8c0-5.76,1.45-10.25,4.32-13.34,2.92-3.15,6.75-4.75,11.36-4.75s8.42,1.59,11.28,4.72c2.79,3.06,4.21,7.56,4.21,13.37v73.38c0,5.56-1.37,9.89-4.07,12.85-2.77,3.04-6.37,4.59-10.69,4.59Z"/><path class="cls-2" d="m293.33,692.08c-5.92,0-9.98-1.98-12.08-5.88-1.8-3.34-2.67-7.91-2.67-13.97v-109.29c0-5.55,1.31-9.84,3.9-12.77,2.68-3.04,6.33-4.58,10.85-4.58s8.11,1.55,10.95,4.62c1.98,2.14,3.26,4.91,3.83,8.25,3.5-3.48,7.12-6.23,10.81-8.21,5.55-2.97,11.89-4.48,18.84-4.48,8.31,0,16.07,2.18,23.07,6.47,7.01,4.3,12.62,10.64,16.65,18.85,3.99,8.11,6.01,17.79,6.01,28.77,0,8.08-1.16,15.62-3.45,22.42-2.31,6.86-5.55,12.72-9.62,17.42-4.1,4.73-9.01,8.42-14.6,10.96-5.59,2.55-11.67,3.84-18.07,3.84-7.74,0-14.38-1.61-19.74-4.77-3.28-1.94-6.49-4.47-9.57-7.54v30.22c0,16.26-8.22,19.67-15.12,19.67Zm38.22-121.62c-6.15,0-11.19,2.37-15.43,7.24-4.29,4.92-6.46,12.44-6.46,22.36,0,9.31,2.17,16.58,6.44,21.59,4.21,4.95,9.26,7.35,15.46,7.35,3.63,0,6.91-1.03,10.02-3.15,3.11-2.12,5.66-5.39,7.58-9.74,1.99-4.48,2.99-10.04,2.99-16.52s-.95-11.64-2.82-16.05c-1.81-4.26-4.33-7.55-7.47-9.78-3.13-2.22-6.5-3.3-10.3-3.3Z"/><path class="cls-2" d="m406.91,654.5c-4.59,0-8.39-1.68-11.28-5.01-2.79-3.2-4.21-7.7-4.21-13.36v-72.46c0-5.75,1.43-10.23,4.26-13.32,2.9-3.17,6.68-4.77,11.24-4.77s8.35,1.59,11.34,4.73c2.94,3.1,4.44,7.34,4.44,12.62v73.2c0,5.82-1.48,10.37-4.41,13.52-2.98,3.21-6.81,4.85-11.36,4.85Zm.28-114.76c-4.24,0-7.94-1.34-10.99-3.97-3.17-2.74-4.78-6.59-4.78-11.43,0-4.45,1.62-8.17,4.83-11.06,3.12-2.82,6.8-4.25,10.94-4.25s7.54,1.29,10.62,3.84c3.24,2.69,4.88,6.55,4.88,11.47s-1.58,8.59-4.71,11.36c-3.02,2.68-6.65,4.04-10.79,4.04Z"/><path class="cls-2" d="m495.45,654.5c-4.14,0-8.1-.5-11.77-1.49-3.7-1-6.92-2.35-9.57-4.02-2.57-1.62-4.8-3.31-6.63-5.04-.64-.61-1.35-1.31-2.12-2.12-.61,3.29-1.89,6-3.83,8.07-2.86,3.06-6.53,4.6-10.89,4.6s-8.1-1.57-10.82-4.68c-2.61-2.99-3.93-7.28-3.93-12.76v-110.58c0-5.79,1.26-10.33,3.75-13.48,2.65-3.37,6.36-5.07,11.01-5.07s8.59,1.62,11.27,4.82c2.56,3.04,3.85,7.29,3.85,12.62v31.78c3.35-2.88,6.77-5.26,10.2-7.08,5.36-2.85,12.01-4.29,19.76-4.29,8.94,0,16.92,2.17,23.71,6.44,6.8,4.28,12.14,10.55,15.87,18.62,3.66,7.94,5.51,17.42,5.51,28.2,0,7.93-1.03,15.32-3.05,21.97-2.05,6.73-5.08,12.66-9,17.63-3.97,5.03-8.86,8.98-14.53,11.73-5.67,2.75-11.99,4.15-18.78,4.15Zm-6.4-84.05c-4.24,0-7.9,1.12-11.2,3.41-3.3,2.3-5.95,5.72-7.88,10.16-1.99,4.58-3,10.16-3,16.58,0,9.31,2.09,16.48,6.2,21.32,4.05,4.76,9.24,7.07,15.88,7.07,5.49,0,10.13-2.37,14.19-7.23,4.13-4.96,6.22-12.33,6.22-21.9,0-6.27-.9-11.71-2.67-16.16-1.7-4.28-4.12-7.61-7.18-9.89-3.03-2.26-6.48-3.35-10.56-3.35Z"/><path class="cls-2" d="m564.23,654.5c-4.59,0-8.39-1.68-11.28-5.01-2.79-3.2-4.21-7.7-4.21-13.36v-72.46c0-5.75,1.43-10.23,4.26-13.32,2.9-3.17,6.68-4.77,11.24-4.77s8.35,1.59,11.34,4.73c2.94,3.09,4.44,7.34,4.44,12.62v73.2c0,5.82-1.48,10.37-4.41,13.52-2.98,3.21-6.81,4.85-11.36,4.85Zm.28-114.76c-4.24,0-7.94-1.34-10.99-3.97-3.17-2.74-4.78-6.59-4.78-11.43,0-4.45,1.62-8.17,4.83-11.06,3.11-2.82,6.8-4.25,10.94-4.25s7.54,1.29,10.61,3.84c3.24,2.69,4.88,6.55,4.88,11.47s-1.58,8.59-4.71,11.36c-3.02,2.68-6.65,4.04-10.78,4.04Z"/><path class="cls-2" d="m609.26,654.5c-4.59,0-8.39-1.68-11.28-5.01-2.79-3.2-4.21-7.7-4.21-13.36v-109.84c0-5.79,1.38-10.31,4.12-13.45,2.83-3.26,6.66-4.92,11.38-4.92s8.54,1.62,11.47,4.81c2.86,3.12,4.31,7.68,4.31,13.56v109.84c0,5.88-1.47,10.45-4.36,13.57-2.96,3.19-6.79,4.8-11.41,4.8Z"/><path class="cls-2" d="m688.52,654.5c-17.02,0-30.51-4.98-40.07-14.81-9.55-9.81-14.39-23.21-14.39-39.83,0-7.78,1.18-15.12,3.51-21.8,2.35-6.76,5.84-12.66,10.37-17.52,4.55-4.88,10.23-8.67,16.86-11.27,6.57-2.57,13.92-3.87,21.86-3.87,10.39,0,19.46,2.24,26.97,6.67,7.53,4.44,13.25,10.27,17.02,17.35,3.74,7.02,5.64,14.29,5.64,21.62s-2.38,12.6-7.08,15.02c-4.11,2.13-9.6,3.16-16.76,3.16h-46.42c.36,4.05,1.36,7.7,3,10.89,1.99,3.87,4.64,6.8,7.88,8.73,3.31,1.97,6.86,2.92,10.87,2.92,2.74,0,5.26-.32,7.49-.96,2.21-.63,4.39-1.63,6.49-2.98,2.22-1.43,4.29-2.98,6.15-4.61,1.93-1.69,4.5-4.04,7.62-6.98.03-.03.07-.06.1-.09,1.85-1.58,4.37-2.38,7.5-2.38,3.33,0,6.11.97,8.28,2.88,2.27,2.01,3.41,4.78,3.41,8.25,0,2.85-1.01,5.97-3.1,9.53-1.98,3.38-4.96,6.63-8.86,9.66-3.86,3-8.74,5.52-14.5,7.47-5.76,1.95-12.43,2.94-19.83,2.94Zm17.03-65.59c-.85-6.34-2.82-11.18-5.88-14.43-3.5-3.71-8.03-5.51-13.84-5.51-5.5,0-9.87,1.83-13.36,5.59-3.07,3.3-5.14,8.12-6.17,14.35h39.25Z"/><path class="cls-2" d="m780.31,654.5c-8.58,0-15-1.46-19.62-4.47-4.69-3.06-7.81-7.35-9.27-12.76-1.33-4.92-2-11.52-2-19.6v-45.64h-.37c-4.39,0-7.87-1.13-10.34-3.36-2.56-2.31-3.85-5.27-3.85-8.79s1.41-6.56,4.07-8.81c2.52-2.13,6.05-3.22,10.5-3.25v-12.25c0-4.22.11-7.45.34-9.88.26-2.75,1-5.18,2.21-7.22,1.22-2.14,3.02-3.93,5.32-5.27,2.31-1.35,4.9-2.03,7.71-2.03,3.97,0,7.59,1.48,10.74,4.41,2.19,2.04,3.6,4.55,4.19,7.48.51,2.53.75,5.96.75,10.46v14.29h6.31c4.33,0,7.76,1.12,10.2,3.32,2.53,2.28,3.81,5.22,3.81,8.75,0,5.73-3.08,8.49-5.67,9.79-3.14,1.59-7.36,2.36-12.89,2.36h-1.76v43.6c0,3.8.13,6.75.39,8.75.2,1.53.68,2.71,1.48,3.58.76.84,2.43,1.02,3.69,1.02s3.1-.24,5.43-.73c2.76-.57,4.9-.85,6.54-.85,2.85,0,5.41,1.12,7.62,3.33,2.21,2.21,3.33,4.96,3.33,8.18,0,3.64-1.45,8.69-8.35,12.04-4.91,2.39-11.62,3.54-20.5,3.54Z"/><path class="cls-2" d="m832.02,654.5c-4.59,0-8.39-1.68-11.28-5.01-2.79-3.2-4.21-7.7-4.21-13.36v-72.46c0-5.75,1.43-10.23,4.26-13.32,2.89-3.16,6.67-4.77,11.24-4.77s8.35,1.59,11.34,4.73c2.94,3.09,4.44,7.34,4.44,12.62v73.2c0,5.82-1.48,10.37-4.41,13.52-2.98,3.21-6.81,4.85-11.36,4.85Zm.28-114.76c-4.24,0-7.94-1.34-10.99-3.97-3.17-2.74-4.78-6.59-4.78-11.43,0-4.45,1.63-8.17,4.83-11.06,3.11-2.82,6.8-4.25,10.94-4.25s7.54,1.29,10.62,3.84c3.24,2.69,4.88,6.55,4.88,11.47s-1.58,8.59-4.71,11.36c-3.02,2.68-6.65,4.04-10.78,4.04Z"/><path class="cls-1" d="m881.31,651.54c-3.84,0-7.14-1.24-9.93-3.71-2.78-2.47-4.17-5.94-4.17-10.39,0-3.77,1.33-7.02,3.99-9.74,2.66-2.72,5.94-4.08,9.83-4.08s7.22,1.35,9.97,4.03c2.75,2.69,4.13,5.95,4.13,9.79,0,4.39-1.38,7.84-4.13,10.34-2.75,2.5-5.98,3.76-9.69,3.76Z"/><path class="cls-2" d="m973.56,654.5c-4.14,0-8.1-.5-11.77-1.49-3.7-1-6.92-2.35-9.57-4.02-2.57-1.62-4.81-3.31-6.63-5.04-.64-.61-1.35-1.31-2.12-2.12-.61,3.29-1.89,6-3.83,8.07-2.86,3.06-6.53,4.6-10.89,4.6s-8.11-1.57-10.82-4.68c-2.61-2.99-3.93-7.28-3.93-12.76v-110.58c0-5.79,1.26-10.33,3.75-13.48,2.65-3.37,6.36-5.07,11.01-5.07s8.59,1.62,11.27,4.82c2.55,3.04,3.85,7.29,3.85,12.62v31.78c3.35-2.88,6.77-5.26,10.2-7.08,5.36-2.85,12.01-4.29,19.76-4.29,8.94,0,16.92,2.17,23.71,6.44,6.8,4.28,12.14,10.55,15.87,18.62,3.66,7.94,5.51,17.42,5.51,28.2,0,7.92-1.03,15.32-3.05,21.97-2.05,6.73-5.08,12.66-9,17.63-3.97,5.03-8.86,8.98-14.53,11.73-5.67,2.75-11.99,4.15-18.78,4.15Zm-6.4-84.05c-4.24,0-7.9,1.12-11.2,3.41-3.3,2.3-5.95,5.72-7.88,10.16-1.99,4.58-3,10.16-3,16.58,0,9.31,2.09,16.48,6.2,21.31,4.05,4.76,9.24,7.07,15.88,7.07,5.49,0,10.13-2.37,14.18-7.23,4.13-4.96,6.22-12.33,6.22-21.9,0-6.27-.9-11.71-2.67-16.16-1.7-4.28-4.12-7.61-7.18-9.89-3.03-2.26-6.48-3.35-10.56-3.35Z"/><path class="cls-2" d="m1076.15,692.08c-9.02,0-17.22-1.29-24.37-3.84-7.27-2.59-12.99-6.02-17.01-10.2-4.24-4.42-6.39-9.12-6.39-13.98,0-3.94,1.38-7.22,4.11-9.74,2.66-2.46,5.9-3.71,9.63-3.71,4.61,0,8.65,2.01,12.01,5.96,1.38,1.7,2.78,3.37,4.22,5.05,1.27,1.49,2.7,2.78,4.24,3.84,1.45.99,3.25,1.75,5.36,2.25,2.24.53,4.88.8,7.85.8,6.05,0,10.74-.81,13.93-2.42,3.01-1.52,5.05-3.55,6.23-6.21,1.3-2.95,2.08-6.15,2.3-9.52.15-2.29.28-5.5.38-9.58-2.75,2.72-5.73,4.98-8.92,6.75-5.52,3.08-12.14,4.64-19.67,4.64-9.05,0-17.09-2.36-23.89-7.01-6.78-4.62-12.04-11.17-15.66-19.45-3.55-8.13-5.35-17.62-5.35-28.19,0-7.9,1.1-15.15,3.26-21.55,2.19-6.48,5.38-12.05,9.48-16.54,4.11-4.5,8.92-7.95,14.3-10.24,5.36-2.28,11.3-3.44,17.68-3.44,7.62,0,14.36,1.5,20.02,4.47,3.72,1.95,7.28,4.63,10.64,8.02.55-3.24,1.78-5.95,3.68-8.07,2.74-3.06,6.3-4.6,10.56-4.6,7.57,0,10.91,3.49,12.39,6.41,1.84,3.64,2.73,8.58,2.73,15.12v73.57c0,8.65-.95,16.24-2.81,22.55-1.93,6.51-5.08,11.99-9.38,16.29-4.29,4.29-9.94,7.51-16.79,9.56-6.65,1.99-14.98,3-24.74,3Zm1.3-121.62c-6.34,0-11.27,2.33-15.07,7.13-3.91,4.94-5.9,12.22-5.9,21.63s2.02,16.68,6.01,21.36c3.93,4.61,8.88,6.84,15.14,6.84,3.69,0,7.09-.97,10.39-2.96,3.25-1.96,5.95-5,8.03-9.03,2.12-4.1,3.19-9.21,3.19-15.2,0-9.6-2.08-17.09-6.18-22.28-3.99-5.05-9.1-7.5-15.62-7.5Z"/></svg>