<?xml version="1.0" encoding="utf-8"?>
<!-- Generator: Adobe Illustrator 27.1.1, SVG Export Plug-In . SVG Version: 6.00 Build 0)  -->
<svg version="1.1" xmlns="http://www.w3.org/2000/svg" xmlns:xlink="http://www.w3.org/1999/xlink" x="0px" y="0px"
	 viewBox="330 178 175 100" xml:space="preserve">
<style type="text/css">
	.st0{fill:url(#SVGID_1_);}
	.st1{fill:#1C234B;}
	.st2{fill:#FFFFFF;}
	.st3{display:none;fill:#B2B2B2;}
</style>
<g id="FON">
</g>
<g id="FON_elementi">
</g>
<g id="TEXT">
</g>
<g id="LOGA">
	<radialGradient id="SVGID_1_" cx="70.9319" cy="227.112" r="58.8257" gradientUnits="userSpaceOnUse">
		<stop  offset="0" style="stop-color:#005179"/>
		<stop  offset="0.7962" style="stop-color:#1C234B"/>
	</radialGradient>
	<path class="st0" d="M56.91,183.16h4.67v0.51h-1.59l-2.69,2.89c-0.35,0.36-0.25,1.37,0.2,1.37h26.9c0.4,0,0.5-1.02,0.2-1.37
		l-2.68-2.89h-1.64v-0.51H85l3.43,3.4h7.41l-3.93-3.96h-5.82v-0.05c0-0.41-0.25-0.66-0.6-0.66h-5.77c-0.35,0-0.6,0.25-0.6,0.66
		c0,0.05,0,0.1,0,0.15v0.96H62.73v-0.96c0-0.05,0-0.1,0-0.15c0-0.41-0.25-0.66-0.6-0.66h-5.77c-0.35,0-0.6,0.25-0.6,0.66v0.05h-5.82
		l-3.88,3.96h7.36L56.91,183.16z M63.23,185.04v-0.05h9.6h5.82v0.05h2.63l0.9,0.91H59.7l0.94-0.91H63.23z M106.48,192.15h-4.97
		v-1.83h4.97V192.15z M58.35,188.23v0.56h25.16v-0.56h3.73v0.56h2.83v2.29H51.79v-2.29h2.83v-0.56H58.35z M40.36,192.15h-4.97v-1.83
		h4.97V192.15z M110.51,213.23v-20.52l-3.18,0.05v11.58h-0.8v-11.68h-0.94v14.99h-0.7v-14.99h-1.04v14.99H103v-14.99h-0.8v16.26
		h-1.04v-22.76h-5.12v1.62h3.73v21.13h-0.8v-20.22h-3.33v20.22h-3.23v-1.73h-0.05v-15.29h-0.8v15.29h-0.35v-15.29h-0.89v15.29h-0.3
		v-15.29h-0.94v15.29h-0.55v-15.29h-0.99v15.29h-0.95v-15.29h-0.95v15.29H84.9v-15.34h-0.95v15.34h-0.84v-15.34h-0.94v15.34h-1.29
		v-15.29H60.99v15.29h-1.24v-15.34h-0.99v15.34h-0.85v-15.34h-0.95v15.34h-0.75v-15.29h-0.95v15.29h-0.94v-15.29h-0.94v15.29
		l-0.6,0.05v-15.34h-0.94v15.34h-0.3v-15.34h-0.89v15.29h-0.3l-0.05-15.29h-0.8v17.02h-3.28v-20.22h-3.33v20.22h-0.75v-21.13h3.73
		v-1.62h-5.12v22.76h-1.09v-16.26h-0.8v14.99h-0.85v-14.99h-0.99v14.99h-0.75v-14.99h-0.89v11.68h-0.85v-11.58l-3.18-0.05v20.52
		h24.86v1.83H31.36v6.4h41.27h37.89v-6.4H85.65v-1.83H110.51z M109.26,194.59h0.45v5.99h-0.45V194.59z M108.12,194.59h0.45v9.75
		h-0.45V194.59z M88.03,210.38h17.7v1.58h-17.7V210.38z M32.6,200.58h-0.4v-5.99h0.4V200.58z M33.74,204.34H33.3v-9.75h0.45V204.34z
		 M53.88,211.96H36.13v-1.58h17.75V211.96z M75.16,192.76h0.5v7.57h-0.5V192.76z M67.6,192.76h4.03h2.63v7.57H67.6V192.76z
		 M66.26,192.76h0.45v7.57h-0.45V192.76z M66.26,205.2h1.04l0.89,0.81h5.52l0.85-0.81h1.09v1.98h-6.26h-3.13V205.2z M57.46,213.23
		h15.01H84.4v1.83H57.46V213.23z M53.88,216.43v1.17h-8.6l-1.19-1.17H53.88z M87.98,216.43h9.84l-1.24,1.17h-8.6V216.43z
		 M97.78,218.61l2.43-2.18h8.5v3.3H33.15v-3.3h8.5l2.44,2.18h28.04H97.78z M70.93,193.16c-1.54,0-2.74,1.27-2.74,2.79
		c0,1.52,1.19,2.79,2.74,2.79c1.44,0,2.68-1.27,2.68-2.79C73.62,194.43,72.37,193.16,70.93,193.16z M70.93,197.33
		c-0.75,0-1.39-0.61-1.39-1.37c0-0.76,0.65-1.37,1.39-1.37c0.7,0,1.29,0.61,1.29,1.37C72.22,196.72,71.63,197.33,70.93,197.33z
		 M58.75,184.68h-1.74v-0.91h1.74V184.68z M83.11,183.76h1.79v0.91h-1.79V183.76z M24.41,269.17c-0.23-0.17-0.53-0.29-0.89-0.36
		c0.2-0.07,0.4-0.15,0.56-0.26c0.39-0.28,0.58-0.7,0.58-1.25c0-0.56-0.2-0.98-0.6-1.27c-0.4-0.29-0.96-0.43-1.66-0.43h-2.77v6.66
		h2.95c0.81,0,1.41-0.16,1.81-0.47c0.4-0.31,0.6-0.76,0.6-1.33C24.99,269.89,24.8,269.46,24.41,269.17z M20.33,266.16h2.03
		c0.51,0,0.91,0.1,1.18,0.31c0.28,0.21,0.41,0.51,0.41,0.92c0,0.41-0.14,0.71-0.41,0.92c-0.28,0.21-0.67,0.31-1.18,0.31h-2.03
		V266.16z M23.86,271.38c-0.29,0.21-0.72,0.31-1.28,0.31h-2.25v-2.54h2.25c0.56,0,0.99,0.1,1.28,0.3c0.29,0.2,0.44,0.52,0.44,0.95
		C24.3,270.84,24.15,271.17,23.86,271.38z M29.51,268.83l2.61,3.42h-0.81l-2.35-3.05h-1.52v3.05h-0.68v-6.66h0.68v2.99h1.52
		l2.25-2.99h0.76L29.51,268.83z M37.74,265.59h0.7l-3.02,5.57c-0.2,0.39-0.44,0.67-0.72,0.87c-0.28,0.19-0.57,0.29-0.88,0.3
		s-0.62-0.04-0.93-0.17l0.2-0.57c0.32,0.13,0.63,0.16,0.91,0.09c0.29-0.07,0.55-0.29,0.79-0.67l0.19-0.3l-2.7-5.12h0.75l2.32,4.5
		L37.74,265.59z M39.81,267.82c-0.14,0.33-0.21,0.7-0.21,1.1s0.07,0.77,0.21,1.1c0.14,0.33,0.34,0.62,0.59,0.87
		c0.25,0.25,0.55,0.44,0.89,0.58c0.34,0.14,0.71,0.21,1.11,0.21c0.38,0,0.74-0.06,1.07-0.19c0.33-0.13,0.63-0.33,0.9-0.61l0.45,0.45
		c-0.29,0.32-0.65,0.57-1.07,0.73c-0.42,0.17-0.88,0.25-1.37,0.25c-0.5,0-0.96-0.08-1.39-0.25c-0.42-0.17-0.79-0.4-1.1-0.71
		s-0.55-0.66-0.73-1.07s-0.26-0.86-0.26-1.35s0.09-0.94,0.26-1.35s0.42-0.77,0.73-1.07c0.31-0.3,0.68-0.54,1.11-0.71
		s0.89-0.25,1.39-0.25c0.48,0,0.93,0.08,1.36,0.24c0.42,0.16,0.78,0.4,1.07,0.73l-0.45,0.45c-0.27-0.28-0.57-0.48-0.9-0.6
		c-0.33-0.12-0.69-0.19-1.07-0.19c-0.4,0-0.77,0.07-1.11,0.21c-0.34,0.14-0.64,0.33-0.89,0.58
		C40.15,267.2,39.96,267.49,39.81,267.82z M50.04,267.97h-2.09v-2.38h-2.77v0.61h2.07v6.05h2.63c0.82,0,1.46-0.19,1.9-0.56
		c0.44-0.37,0.67-0.91,0.67-1.63c0-0.69-0.21-1.21-0.62-1.56C51.42,268.15,50.82,267.97,50.04,267.97z M51.28,271.28
		c-0.32,0.27-0.79,0.41-1.4,0.41h-1.93v-3.15h1.93c0.62,0,1.09,0.12,1.41,0.38c0.32,0.25,0.48,0.64,0.48,1.17
		S51.6,271.01,51.28,271.28z M52.36,265.59h5.37v0.61h-2.34v6.05H54.7v-6.05h-2.34V265.59z M66.33,265.59h0.69v6.66h-0.69v-3.07
		h-4.17v3.07h-0.7v-6.66h0.7v2.97h4.17V265.59z M71.33,265.59l-3.04,6.66h0.73l0.8-1.78h3.71l0.8,1.78h0.74l-3.04-6.66H71.33z
		 M70.07,269.9l1.6-3.58l1.6,3.58H70.07z M84.81,268.81l2.28,3.44h-0.82l-2.04-3.05h-1.38v3.05h-0.68v-3.05H80.8l-2.04,3.05h-0.82
		l2.28-3.44l-2.11-3.22h0.76l1.92,2.99h1.39v-2.99h0.68v2.99h1.38l1.92-2.99h0.76L84.81,268.81z M93.17,265.59h0.64v6.66h-0.69
		v-5.51l-4.26,5.51h-0.64v-6.66h0.69v5.52L93.17,265.59z M100.84,269.17c-0.23-0.17-0.53-0.29-0.89-0.36
		c0.2-0.07,0.4-0.15,0.56-0.26c0.39-0.28,0.58-0.7,0.58-1.25c0-0.56-0.2-0.98-0.6-1.27c-0.4-0.29-0.96-0.43-1.66-0.43h-2.77v6.66H99
		c0.81,0,1.41-0.16,1.81-0.47c0.4-0.31,0.6-0.76,0.6-1.33C101.42,269.89,101.22,269.46,100.84,269.17z M96.75,266.16h2.03
		c0.51,0,0.91,0.1,1.18,0.31c0.28,0.21,0.41,0.51,0.41,0.92c0,0.41-0.14,0.71-0.41,0.92c-0.28,0.21-0.67,0.31-1.18,0.31h-2.03
		V266.16z M100.29,271.38c-0.29,0.21-0.72,0.31-1.28,0.31h-2.25v-2.54H99c0.56,0,0.99,0.1,1.28,0.3c0.29,0.2,0.44,0.52,0.44,0.95
		C100.72,270.84,100.58,271.17,100.29,271.38z M108.59,266.5c-0.31-0.3-0.68-0.54-1.11-0.71c-0.42-0.17-0.89-0.25-1.39-0.25
		c-0.51,0-0.97,0.08-1.4,0.25c-0.42,0.17-0.79,0.41-1.11,0.71s-0.56,0.67-0.73,1.07c-0.17,0.41-0.26,0.86-0.26,1.35
		s0.09,0.94,0.26,1.35c0.17,0.41,0.42,0.77,0.73,1.07s0.68,0.54,1.11,0.71c0.43,0.17,0.89,0.25,1.39,0.25c0.5,0,0.96-0.08,1.39-0.25
		c0.42-0.17,0.79-0.4,1.11-0.71c0.31-0.3,0.56-0.66,0.73-1.07s0.26-0.86,0.26-1.35s-0.09-0.94-0.26-1.35S108.91,266.8,108.59,266.5z
		 M108.67,270.02c-0.14,0.33-0.33,0.62-0.58,0.87c-0.25,0.25-0.54,0.44-0.88,0.58c-0.34,0.14-0.71,0.21-1.11,0.21
		c-0.4,0-0.77-0.07-1.11-0.21c-0.34-0.14-0.64-0.33-0.89-0.58c-0.25-0.25-0.45-0.54-0.59-0.88s-0.21-0.7-0.21-1.09
		c0-0.4,0.07-0.77,0.21-1.1c0.14-0.33,0.34-0.62,0.59-0.87c0.25-0.25,0.55-0.44,0.89-0.58c0.34-0.14,0.71-0.21,1.11-0.21
		c0.4,0,0.77,0.07,1.11,0.21c0.34,0.14,0.63,0.33,0.88,0.58c0.25,0.25,0.45,0.54,0.58,0.87c0.14,0.33,0.21,0.7,0.21,1.1
		S108.81,269.69,108.67,270.02z M113.19,266.2v6.05h-0.69v-6.05h-2.34v-0.61h5.37v0.61H113.19z M121.49,272.25h0.74l-3.04-6.66
		h-0.69l-3.04,6.66h0.73l0.8-1.78h3.71L121.49,272.25z M117.24,269.9l1.6-3.58l1.6,3.58H117.24z M9.82,244.11
		c-0.28,0.75-0.42,1.6-0.42,2.53c0,0.93,0.14,1.77,0.42,2.53c0.28,0.76,0.67,1.4,1.17,1.93c0.5,0.54,1.1,0.94,1.79,1.22
		c0.7,0.28,1.47,0.42,2.33,0.42c1.09,0,2.07-0.25,2.94-0.75c0.87-0.5,1.67-1.2,2.39-2.11l5.19,4.63c-1.21,1.56-2.73,2.76-4.58,3.61
		s-3.97,1.27-6.36,1.27c-1.95,0-3.76-0.31-5.42-0.92c-1.66-0.61-3.1-1.49-4.32-2.63c-1.22-1.14-2.17-2.48-2.84-4.04
		c-0.67-1.56-1.01-3.27-1.01-5.16c0-1.88,0.34-3.6,1.01-5.16c0.67-1.56,1.62-2.9,2.84-4.04c1.22-1.14,2.66-2.01,4.32-2.63
		c1.66-0.62,3.47-0.92,5.42-0.92c2.39,0,4.51,0.42,6.36,1.25s3.37,2.04,4.58,3.62l-5.19,4.63c-0.72-0.91-1.52-1.61-2.39-2.11
		c-0.87-0.5-1.85-0.75-2.94-0.75c-0.86,0-1.64,0.14-2.33,0.42c-0.7,0.28-1.29,0.69-1.79,1.22C10.48,242.71,10.09,243.35,9.82,244.11
		z M49.84,237.49c-1.23-1.15-2.68-2.04-4.35-2.67c-1.67-0.63-3.51-0.94-5.5-0.94c-1.97,0-3.8,0.31-5.49,0.94
		c-1.68,0.63-3.14,1.52-4.37,2.67c-1.23,1.15-2.19,2.5-2.87,4.04s-1.03,3.25-1.03,5.1c0,1.83,0.34,3.53,1.03,5.09
		c0.69,1.56,1.64,2.91,2.87,4.06c1.23,1.15,2.69,2.04,4.37,2.67c1.68,0.63,3.51,0.94,5.49,0.94c2,0,3.83-0.31,5.5-0.94
		c1.67-0.63,3.12-1.52,4.35-2.67c1.23-1.15,2.19-2.5,2.87-4.06c0.69-1.56,1.03-3.25,1.03-5.09c0-1.86-0.34-3.56-1.03-5.1
		S51.07,238.64,49.84,237.49z M45.03,249.19c-0.28,0.75-0.67,1.39-1.17,1.92c-0.5,0.52-1.08,0.92-1.74,1.2
		c-0.66,0.28-1.38,0.42-2.14,0.42c-0.77,0-1.48-0.14-2.14-0.42c-0.66-0.28-1.24-0.68-1.74-1.2c-0.5-0.52-0.89-1.16-1.17-1.92
		c-0.28-0.75-0.42-1.61-0.42-2.56c0-0.95,0.14-1.8,0.42-2.56s0.67-1.39,1.17-1.92c0.5-0.52,1.08-0.92,1.74-1.2
		c0.66-0.28,1.38-0.42,2.14-0.42c0.77,0,1.48,0.14,2.14,0.42c0.66,0.28,1.24,0.68,1.74,1.2c0.5,0.52,0.89,1.16,1.17,1.92
		c0.28,0.75,0.42,1.61,0.42,2.56C45.45,247.59,45.31,248.44,45.03,249.19z M81.14,236.93c-1.63-0.62-3.56-1-5.77-1.17v-2.54h-7.52
		v2.57c-2.12,0.18-4,0.54-5.61,1.13c-2.3,0.84-4.03,2.06-5.19,3.67c-1.16,1.61-1.74,3.59-1.74,5.94c0,2.35,0.58,4.33,1.74,5.96
		c1.16,1.63,2.89,2.86,5.17,3.69c1.6,0.59,3.49,0.95,5.63,1.13v2.77h7.52v-2.72c2.29-0.15,4.28-0.55,5.96-1.21
		c2.18-0.86,3.83-2.1,4.93-3.73c1.1-1.63,1.65-3.59,1.65-5.89c0-2.32-0.57-4.29-1.71-5.9C85.07,239.01,83.38,237.78,81.14,236.93z
		 M66.89,250.73c-1.22-0.29-2.13-0.78-2.73-1.46c-0.6-0.69-0.91-1.6-0.91-2.74c0-1.14,0.27-2.04,0.8-2.72
		c0.53-0.67,1.4-1.16,2.6-1.45c0.36-0.09,0.77-0.16,1.2-0.22v8.77C67.51,250.86,67.19,250.8,66.89,250.73z M79.21,249.19
		c-0.51,0.69-1.34,1.18-2.47,1.5c-0.4,0.11-0.87,0.19-1.36,0.27v-8.83c0.47,0.07,0.92,0.15,1.31,0.25c1.13,0.3,1.96,0.78,2.49,1.45
		c0.53,0.66,0.8,1.55,0.8,2.67C79.97,247.61,79.72,248.51,79.21,249.19z M107.32,234.44h7.73v24.38h-8.08v-12.64l-8.36,12.64h-7.77
		v-24.38h8.08v12.68L107.32,234.44z M129.33,234.44c-2.3,0-4.3,0.38-5.99,1.15c-1.7,0.77-3,1.85-3.92,3.26
		c-0.92,1.41-1.38,3.08-1.38,5.03c0,1.91,0.44,3.54,1.32,4.91c0.85,1.32,2.05,2.33,3.6,3.06l-4.82,6.98h8.6l3.72-5.78h2.2v5.78h8.08
		v-24.38H129.33z M127.12,241.51c0.52-0.49,1.31-0.73,2.35-0.73h3.2v6.06h-3.2c-1.02,0-1.8-0.26-2.33-0.78
		c-0.53-0.52-0.8-1.29-0.8-2.32C126.34,242.74,126.6,242,127.12,241.51z"/>
	<g>
		<path class="st1" d="M228.74,183.16h4.67v0.51h-1.59l-2.69,2.89c-0.35,0.36-0.25,1.37,0.2,1.37h26.9c0.4,0,0.5-1.02,0.2-1.37
			l-2.68-2.89h-1.64v-0.51h4.72l3.43,3.4h7.41l-3.93-3.96h-5.82v-0.05c0-0.41-0.25-0.66-0.6-0.66h-5.77c-0.35,0-0.6,0.25-0.6,0.66
			c0,0.05,0,0.1,0,0.15v0.96h-16.41v-0.96c0-0.05,0-0.1,0-0.15c0-0.41-0.25-0.66-0.6-0.66h-5.77c-0.35,0-0.6,0.25-0.6,0.66v0.05
			h-5.82l-3.88,3.96h7.36L228.74,183.16z M235.05,185.04v-0.05h9.6h5.82v0.05h2.63l0.9,0.91h-22.47l0.94-0.91H235.05z
			 M278.31,192.15h-4.97v-1.83h4.97V192.15z M230.18,188.23v0.56h25.16v-0.56h3.73v0.56h2.83v2.29h-38.28v-2.29h2.83v-0.56H230.18z
			 M212.18,192.15h-4.97v-1.83h4.97V192.15z M282.34,213.23v-20.52l-3.18,0.05v11.58h-0.8v-11.68h-0.94v14.99h-0.7v-14.99h-1.04
			v14.99h-0.85v-14.99h-0.8v16.26h-1.04v-22.76h-5.12v1.62h3.73v21.13h-0.8v-20.22h-3.33v20.22h-3.23v-1.73h-0.05v-15.29h-0.8v15.29
			h-0.35v-15.29h-0.89v15.29h-0.3v-15.29h-0.94v15.29h-0.55v-15.29h-0.99v15.29h-0.95v-15.29h-0.95v15.29h-0.74v-15.34h-0.95v15.34
			h-0.84v-15.34H254v15.34h-1.29v-15.29h-19.89v15.29h-1.24v-15.34h-0.99v15.34h-0.85v-15.34h-0.95v15.34h-0.75v-15.29h-0.95v15.29
			h-0.94v-15.29h-0.94v15.29l-0.6,0.05v-15.34h-0.94v15.34h-0.3v-15.34h-0.89v15.29h-0.3l-0.05-15.29h-0.8v17.02h-3.28v-20.22h-3.33
			v20.22h-0.75v-21.13h3.73v-1.62h-5.12v22.76h-1.09v-16.26h-0.8v14.99h-0.85v-14.99h-0.99v14.99h-0.75v-14.99h-0.89v11.68h-0.85
			v-11.58l-3.18-0.05v20.52h24.86v1.83h-24.86v6.4h41.27h37.88v-6.4h-24.86v-1.83H282.34z M281.09,194.59h0.45v5.99h-0.45V194.59z
			 M279.95,194.59h0.45v9.75h-0.45V194.59z M259.86,210.38h17.7v1.58h-17.7V210.38z M204.43,200.58h-0.4v-5.99h0.4V200.58z
			 M205.57,204.34h-0.45v-9.75h0.45V204.34z M225.71,211.96h-17.75v-1.58h17.75V211.96z M246.98,192.76h0.5v7.57h-0.5V192.76z
			 M239.43,192.76h4.03h2.63v7.57h-6.66V192.76z M238.09,192.76h0.45v7.57h-0.45V192.76z M238.09,205.2h1.04l0.89,0.81h5.52
			l0.85-0.81h1.09v1.98h-6.26h-3.13V205.2z M229.29,213.23h15.01h11.93v1.83h-26.95V213.23z M225.71,216.43v1.17h-8.6l-1.19-1.17
			H225.71z M259.81,216.43h9.84l-1.24,1.17h-8.6V216.43z M269.61,218.61l2.43-2.18h8.5v3.3h-75.57v-3.3h8.5l2.44,2.18h28.04H269.61z
			 M242.76,193.16c-1.54,0-2.74,1.27-2.74,2.79c0,1.52,1.19,2.79,2.74,2.79c1.44,0,2.68-1.27,2.68-2.79
			C245.44,194.43,244.2,193.16,242.76,193.16z M242.76,197.33c-0.75,0-1.39-0.61-1.39-1.37c0-0.76,0.65-1.37,1.39-1.37
			c0.7,0,1.29,0.61,1.29,1.37C244.05,196.72,243.46,197.33,242.76,197.33z M230.58,184.68h-1.74v-0.91h1.74V184.68z M254.94,183.76
			h1.79v0.91h-1.79V183.76z M196.24,269.17c-0.23-0.17-0.53-0.29-0.89-0.36c0.2-0.07,0.4-0.15,0.56-0.26
			c0.39-0.28,0.58-0.7,0.58-1.25c0-0.56-0.2-0.98-0.6-1.27c-0.4-0.29-0.96-0.43-1.66-0.43h-2.77v6.66h2.95
			c0.81,0,1.41-0.16,1.81-0.47c0.4-0.31,0.6-0.76,0.6-1.33C196.82,269.89,196.63,269.46,196.24,269.17z M192.15,266.16h2.03
			c0.51,0,0.91,0.1,1.18,0.31c0.28,0.21,0.41,0.51,0.41,0.92c0,0.41-0.14,0.71-0.41,0.92c-0.28,0.21-0.67,0.31-1.18,0.31h-2.03
			V266.16z M195.69,271.38c-0.29,0.21-0.72,0.31-1.28,0.31h-2.25v-2.54h2.25c0.56,0,0.99,0.1,1.28,0.3c0.29,0.2,0.44,0.52,0.44,0.95
			C196.13,270.84,195.98,271.17,195.69,271.38z M201.33,268.83l2.61,3.42h-0.81l-2.35-3.05h-1.52v3.05h-0.68v-6.66h0.68v2.99h1.52
			l2.25-2.99h0.76L201.33,268.83z M209.56,265.59h0.7l-3.02,5.57c-0.2,0.39-0.44,0.67-0.72,0.87c-0.28,0.19-0.57,0.29-0.88,0.3
			s-0.62-0.04-0.93-0.17l0.2-0.57c0.32,0.13,0.63,0.16,0.91,0.09c0.29-0.07,0.55-0.29,0.79-0.67l0.19-0.3l-2.7-5.12h0.75l2.32,4.5
			L209.56,265.59z M211.64,267.82c-0.14,0.33-0.21,0.7-0.21,1.1s0.07,0.77,0.21,1.1c0.14,0.33,0.34,0.62,0.59,0.87
			c0.25,0.25,0.55,0.44,0.89,0.58c0.34,0.14,0.71,0.21,1.11,0.21c0.38,0,0.74-0.06,1.07-0.19c0.33-0.13,0.63-0.33,0.9-0.61
			l0.45,0.45c-0.29,0.32-0.65,0.57-1.07,0.73c-0.42,0.17-0.88,0.25-1.37,0.25c-0.5,0-0.96-0.08-1.39-0.25
			c-0.42-0.17-0.79-0.4-1.1-0.71s-0.55-0.66-0.73-1.07s-0.26-0.86-0.26-1.35s0.09-0.94,0.26-1.35s0.42-0.77,0.73-1.07
			c0.31-0.3,0.68-0.54,1.11-0.71s0.89-0.25,1.39-0.25c0.48,0,0.93,0.08,1.36,0.24c0.42,0.16,0.78,0.4,1.07,0.73l-0.45,0.45
			c-0.27-0.28-0.57-0.48-0.9-0.6c-0.33-0.12-0.69-0.19-1.07-0.19c-0.4,0-0.77,0.07-1.11,0.21c-0.34,0.14-0.64,0.33-0.89,0.58
			C211.98,267.2,211.78,267.49,211.64,267.82z M221.87,267.97h-2.09v-2.38h-2.77v0.61h2.07v6.05h2.63c0.82,0,1.46-0.19,1.9-0.56
			c0.44-0.37,0.67-0.91,0.67-1.63c0-0.69-0.21-1.21-0.62-1.56C223.25,268.15,222.65,267.97,221.87,267.97z M223.11,271.28
			c-0.32,0.27-0.79,0.41-1.4,0.41h-1.93v-3.15h1.93c0.62,0,1.09,0.12,1.41,0.38c0.32,0.25,0.48,0.64,0.48,1.17
			S223.43,271.01,223.11,271.28z M224.19,265.59h5.37v0.61h-2.34v6.05h-0.69v-6.05h-2.34V265.59z M238.16,265.59h0.69v6.66h-0.69
			v-3.07h-4.17v3.07h-0.7v-6.66h0.7v2.97h4.17V265.59z M243.16,265.59l-3.04,6.66h0.73l0.8-1.78h3.71l0.8,1.78h0.74l-3.04-6.66
			H243.16z M241.9,269.9l1.6-3.58l1.6,3.58H241.9z M256.64,268.81l2.28,3.44h-0.82l-2.04-3.05h-1.38v3.05h-0.68v-3.05h-1.38
			l-2.04,3.05h-0.82l2.28-3.44l-2.11-3.22h0.76l1.92,2.99h1.39v-2.99h0.68v2.99h1.38l1.92-2.99h0.76L256.64,268.81z M265,265.59
			h0.64v6.66h-0.69v-5.51l-4.26,5.51h-0.64v-6.66h0.69v5.52L265,265.59z M272.66,269.17c-0.23-0.17-0.53-0.29-0.89-0.36
			c0.2-0.07,0.4-0.15,0.56-0.26c0.39-0.28,0.58-0.7,0.58-1.25c0-0.56-0.2-0.98-0.6-1.27c-0.4-0.29-0.96-0.43-1.66-0.43h-2.77v6.66
			h2.95c0.81,0,1.41-0.16,1.81-0.47c0.4-0.31,0.6-0.76,0.6-1.33C273.24,269.89,273.05,269.46,272.66,269.17z M268.58,266.16h2.03
			c0.51,0,0.91,0.1,1.18,0.31c0.28,0.21,0.41,0.51,0.41,0.92c0,0.41-0.14,0.71-0.41,0.92c-0.28,0.21-0.67,0.31-1.18,0.31h-2.03
			V266.16z M272.11,271.38c-0.29,0.21-0.72,0.31-1.28,0.31h-2.25v-2.54h2.25c0.56,0,0.99,0.1,1.28,0.3c0.29,0.2,0.44,0.52,0.44,0.95
			C272.55,270.84,272.41,271.17,272.11,271.38z M280.42,266.5c-0.31-0.3-0.68-0.54-1.11-0.71c-0.42-0.17-0.89-0.25-1.39-0.25
			c-0.51,0-0.97,0.08-1.4,0.25c-0.42,0.17-0.79,0.41-1.11,0.71s-0.56,0.67-0.73,1.07c-0.17,0.41-0.26,0.86-0.26,1.35
			s0.09,0.94,0.26,1.35c0.17,0.41,0.42,0.77,0.73,1.07s0.68,0.54,1.11,0.71c0.43,0.17,0.89,0.25,1.39,0.25
			c0.5,0,0.96-0.08,1.39-0.25c0.42-0.17,0.79-0.4,1.11-0.71c0.31-0.3,0.56-0.66,0.73-1.07s0.26-0.86,0.26-1.35s-0.09-0.94-0.26-1.35
			S280.73,266.8,280.42,266.5z M280.5,270.02c-0.14,0.33-0.33,0.62-0.58,0.87c-0.25,0.25-0.54,0.44-0.88,0.58
			c-0.34,0.14-0.71,0.21-1.11,0.21c-0.4,0-0.77-0.07-1.11-0.21c-0.34-0.14-0.64-0.33-0.89-0.58c-0.25-0.25-0.45-0.54-0.59-0.88
			s-0.21-0.7-0.21-1.09c0-0.4,0.07-0.77,0.21-1.1c0.14-0.33,0.34-0.62,0.59-0.87c0.25-0.25,0.55-0.44,0.89-0.58
			c0.34-0.14,0.71-0.21,1.11-0.21c0.4,0,0.77,0.07,1.11,0.21c0.34,0.14,0.63,0.33,0.88,0.58c0.25,0.25,0.45,0.54,0.58,0.87
			c0.14,0.33,0.21,0.7,0.21,1.1S280.64,269.69,280.5,270.02z M285.02,266.2v6.05h-0.69v-6.05h-2.34v-0.61h5.37v0.61H285.02z
			 M293.32,272.25h0.74l-3.04-6.66h-0.69l-3.04,6.66h0.73l0.8-1.78h3.71L293.32,272.25z M289.06,269.9l1.6-3.58l1.6,3.58H289.06z
			 M181.64,244.11c-0.28,0.75-0.42,1.6-0.42,2.53c0,0.93,0.14,1.77,0.42,2.53c0.28,0.76,0.67,1.4,1.17,1.93
			c0.5,0.54,1.1,0.94,1.79,1.22c0.7,0.28,1.47,0.42,2.33,0.42c1.09,0,2.07-0.25,2.94-0.75c0.87-0.5,1.67-1.2,2.39-2.11l5.19,4.63
			c-1.21,1.56-2.73,2.76-4.58,3.61s-3.97,1.27-6.36,1.27c-1.95,0-3.76-0.31-5.42-0.92c-1.66-0.61-3.1-1.49-4.32-2.63
			c-1.22-1.14-2.17-2.48-2.84-4.04c-0.67-1.56-1.01-3.27-1.01-5.16c0-1.88,0.34-3.6,1.01-5.16c0.67-1.56,1.62-2.9,2.84-4.04
			c1.22-1.14,2.66-2.01,4.32-2.63c1.66-0.62,3.47-0.92,5.42-0.92c2.39,0,4.51,0.42,6.36,1.25s3.37,2.04,4.58,3.62l-5.19,4.63
			c-0.72-0.91-1.52-1.61-2.39-2.11c-0.87-0.5-1.85-0.75-2.94-0.75c-0.86,0-1.64,0.14-2.33,0.42c-0.7,0.28-1.29,0.69-1.79,1.22
			C182.31,242.71,181.92,243.35,181.64,244.11z M221.67,237.49c-1.23-1.15-2.68-2.04-4.35-2.67c-1.67-0.63-3.51-0.94-5.5-0.94
			c-1.97,0-3.8,0.31-5.49,0.94c-1.68,0.63-3.14,1.52-4.37,2.67c-1.23,1.15-2.19,2.5-2.87,4.04s-1.03,3.25-1.03,5.1
			c0,1.83,0.34,3.53,1.03,5.09c0.69,1.56,1.64,2.91,2.87,4.06c1.23,1.15,2.69,2.04,4.37,2.67c1.68,0.63,3.51,0.94,5.49,0.94
			c2,0,3.83-0.31,5.5-0.94c1.67-0.63,3.12-1.52,4.35-2.67c1.23-1.15,2.19-2.5,2.87-4.06c0.69-1.56,1.03-3.25,1.03-5.09
			c0-1.86-0.34-3.56-1.03-5.1S222.9,238.64,221.67,237.49z M216.86,249.19c-0.28,0.75-0.67,1.39-1.17,1.92
			c-0.5,0.52-1.08,0.92-1.74,1.2c-0.66,0.28-1.38,0.42-2.14,0.42c-0.77,0-1.48-0.14-2.14-0.42c-0.66-0.28-1.24-0.68-1.74-1.2
			c-0.5-0.52-0.89-1.16-1.17-1.92c-0.28-0.75-0.42-1.61-0.42-2.56c0-0.95,0.14-1.8,0.42-2.56s0.67-1.39,1.17-1.92
			c0.5-0.52,1.08-0.92,1.74-1.2c0.66-0.28,1.38-0.42,2.14-0.42c0.77,0,1.48,0.14,2.14,0.42c0.66,0.28,1.24,0.68,1.74,1.2
			c0.5,0.52,0.89,1.16,1.17,1.92c0.28,0.75,0.42,1.61,0.42,2.56C217.28,247.59,217.14,248.44,216.86,249.19z M252.97,236.93
			c-1.63-0.62-3.56-1-5.77-1.17v-2.54h-7.52v2.57c-2.12,0.18-4,0.54-5.61,1.13c-2.3,0.84-4.03,2.06-5.19,3.67
			c-1.16,1.61-1.74,3.59-1.74,5.94c0,2.35,0.58,4.33,1.74,5.96c1.16,1.63,2.89,2.86,5.17,3.69c1.6,0.59,3.49,0.95,5.63,1.13v2.77
			h7.52v-2.72c2.29-0.15,4.28-0.55,5.96-1.21c2.18-0.86,3.83-2.1,4.93-3.73c1.1-1.63,1.65-3.59,1.65-5.89c0-2.32-0.57-4.29-1.71-5.9
			C256.9,239.01,255.21,237.78,252.97,236.93z M238.72,250.73c-1.22-0.29-2.13-0.78-2.73-1.46c-0.6-0.69-0.91-1.6-0.91-2.74
			c0-1.14,0.27-2.04,0.8-2.72c0.53-0.67,1.4-1.16,2.6-1.45c0.36-0.09,0.77-0.16,1.2-0.22v8.77
			C239.34,250.86,239.02,250.8,238.72,250.73z M251.03,249.19c-0.51,0.69-1.34,1.18-2.47,1.5c-0.4,0.11-0.87,0.19-1.36,0.27v-8.83
			c0.47,0.07,0.92,0.15,1.31,0.25c1.13,0.3,1.96,0.78,2.49,1.45c0.53,0.66,0.8,1.55,0.8,2.67
			C251.8,247.61,251.54,248.51,251.03,249.19z M279.14,234.44h7.73v24.38h-8.08v-12.64l-8.36,12.64h-7.77v-24.38h8.08v12.68
			L279.14,234.44z M301.16,234.44c-2.3,0-4.3,0.38-5.99,1.15c-1.7,0.77-3,1.85-3.92,3.26c-0.92,1.41-1.38,3.08-1.38,5.03
			c0,1.91,0.44,3.54,1.32,4.91c0.85,1.32,2.05,2.33,3.6,3.06l-4.82,6.98h8.6l3.72-5.78h2.2v5.78h8.08v-24.38H301.16z M298.95,241.51
			c0.52-0.49,1.31-0.73,2.35-0.73h3.2v6.06h-3.2c-1.02,0-1.8-0.26-2.33-0.78c-0.53-0.52-0.8-1.29-0.8-2.32
			C298.16,242.74,298.42,242,298.95,241.51z"/>
	</g>
	<g>
		<path class="st2" d="M404.05,183.16h4.67v0.51h-1.59l-2.69,2.89c-0.35,0.36-0.25,1.37,0.2,1.37h26.9c0.4,0,0.5-1.02,0.2-1.37
			l-2.68-2.89h-1.64v-0.51h4.72l3.43,3.4h7.41l-3.93-3.96h-5.82v-0.05c0-0.41-0.25-0.66-0.6-0.66h-5.77c-0.35,0-0.6,0.25-0.6,0.66
			c0,0.05,0,0.1,0,0.15v0.96h-16.41v-0.96c0-0.05,0-0.1,0-0.15c0-0.41-0.25-0.66-0.6-0.66h-5.77c-0.35,0-0.6,0.25-0.6,0.66v0.05
			h-5.82l-3.88,3.96h7.36L404.05,183.16z M410.36,185.04v-0.05h9.6h5.82v0.05h2.63l0.9,0.91h-22.47l0.94-0.91H410.36z
			 M453.62,192.15h-4.97v-1.83h4.97V192.15z M405.49,188.23v0.56h25.16v-0.56h3.73v0.56h2.83v2.29h-38.28v-2.29h2.83v-0.56H405.49z
			 M387.49,192.15h-4.97v-1.83h4.97V192.15z M457.65,213.23v-20.52l-3.18,0.05v11.58h-0.8v-11.68h-0.94v14.99h-0.7v-14.99h-1.04
			v14.99h-0.85v-14.99h-0.8v16.26h-1.04v-22.76h-5.12v1.62h3.73v21.13h-0.8v-20.22h-3.33v20.22h-3.23v-1.73h-0.05v-15.29h-0.8v15.29
			h-0.35v-15.29h-0.89v15.29h-0.3v-15.29h-0.94v15.29h-0.55v-15.29h-0.99v15.29h-0.95v-15.29h-0.95v15.29h-0.74v-15.34h-0.95v15.34
			h-0.84v-15.34h-0.94v15.34h-1.29v-15.29h-19.89v15.29h-1.24v-15.34h-0.99v15.34h-0.85v-15.34h-0.95v15.34h-0.75v-15.29h-0.95
			v15.29h-0.94v-15.29h-0.94v15.29l-0.6,0.05v-15.34h-0.94v15.34h-0.3v-15.34h-0.89v15.29h-0.3l-0.05-15.29h-0.8v17.02h-3.28v-20.22
			h-3.33v20.22h-0.75v-21.13h3.73v-1.62h-5.12v22.76h-1.09v-16.26H386v14.99h-0.85v-14.99h-0.99v14.99h-0.75v-14.99h-0.89v11.68
			h-0.85v-11.58l-3.18-0.05v20.52h24.86v1.83H378.5v6.4h41.27h37.89v-6.4h-24.86v-1.83H457.65z M456.4,194.59h0.45v5.99h-0.45
			V194.59z M455.26,194.59h0.45v9.75h-0.45V194.59z M435.17,210.38h17.7v1.58h-17.7V210.38z M379.74,200.58h-0.4v-5.99h0.4V200.58z
			 M380.88,204.34h-0.45v-9.75h0.45V204.34z M401.02,211.96h-17.75v-1.58h17.75V211.96z M422.3,192.76h0.5v7.57h-0.5V192.76z
			 M414.74,192.76h4.03h2.63v7.57h-6.66V192.76z M413.4,192.76h0.45v7.57h-0.45V192.76z M413.4,205.2h1.04l0.89,0.81h5.52l0.85-0.81
			h1.09v1.98h-6.26h-3.13V205.2z M404.6,213.23h15.01h11.93v1.83H404.6V213.23z M401.02,216.43v1.17h-8.6l-1.19-1.17H401.02z
			 M435.12,216.43h9.84l-1.24,1.17h-8.6V216.43z M444.92,218.61l2.43-2.18h8.5v3.3h-75.57v-3.3h8.5l2.44,2.18h28.04H444.92z
			 M418.07,193.16c-1.54,0-2.74,1.27-2.74,2.79c0,1.52,1.19,2.79,2.74,2.79c1.44,0,2.68-1.27,2.68-2.79
			C420.76,194.43,419.51,193.16,418.07,193.16z M418.07,197.33c-0.75,0-1.39-0.61-1.39-1.37c0-0.76,0.65-1.37,1.39-1.37
			c0.7,0,1.29,0.61,1.29,1.37C419.36,196.72,418.77,197.33,418.07,197.33z M405.89,184.68h-1.74v-0.91h1.74V184.68z M430.25,183.76
			h1.79v0.91h-1.79V183.76z M371.55,269.17c-0.23-0.17-0.53-0.29-0.89-0.36c0.2-0.07,0.4-0.15,0.56-0.26
			c0.39-0.28,0.58-0.7,0.58-1.25c0-0.56-0.2-0.98-0.6-1.27c-0.4-0.29-0.96-0.43-1.66-0.43h-2.77v6.66h2.95
			c0.81,0,1.41-0.16,1.81-0.47c0.4-0.31,0.6-0.76,0.6-1.33C372.13,269.89,371.94,269.46,371.55,269.17z M367.46,266.16h2.03
			c0.51,0,0.91,0.1,1.18,0.31c0.28,0.21,0.41,0.51,0.41,0.92c0,0.41-0.14,0.71-0.41,0.92c-0.28,0.21-0.67,0.31-1.18,0.31h-2.03
			V266.16z M371,271.38c-0.29,0.21-0.72,0.31-1.28,0.31h-2.25v-2.54h2.25c0.56,0,0.99,0.1,1.28,0.3c0.29,0.2,0.44,0.52,0.44,0.95
			C371.44,270.84,371.29,271.17,371,271.38z M376.64,268.83l2.61,3.42h-0.81l-2.35-3.05h-1.52v3.05h-0.68v-6.66h0.68v2.99h1.52
			l2.25-2.99h0.76L376.64,268.83z M384.88,265.59h0.7l-3.02,5.57c-0.2,0.39-0.44,0.67-0.72,0.87c-0.28,0.19-0.57,0.29-0.88,0.3
			s-0.62-0.04-0.93-0.17l0.2-0.57c0.32,0.13,0.63,0.16,0.91,0.09c0.29-0.07,0.55-0.29,0.79-0.67l0.19-0.3l-2.7-5.12h0.75l2.32,4.5
			L384.88,265.59z M386.95,267.82c-0.14,0.33-0.21,0.7-0.21,1.1s0.07,0.77,0.21,1.1c0.14,0.33,0.34,0.62,0.59,0.87
			c0.25,0.25,0.55,0.44,0.89,0.58c0.34,0.14,0.71,0.21,1.11,0.21c0.38,0,0.74-0.06,1.07-0.19c0.33-0.13,0.63-0.33,0.9-0.61
			l0.45,0.45c-0.29,0.32-0.65,0.57-1.07,0.73c-0.42,0.17-0.88,0.25-1.37,0.25c-0.5,0-0.96-0.08-1.39-0.25
			c-0.42-0.17-0.79-0.4-1.1-0.71s-0.55-0.66-0.73-1.07s-0.26-0.86-0.26-1.35s0.09-0.94,0.26-1.35s0.42-0.77,0.73-1.07
			c0.31-0.3,0.68-0.54,1.11-0.71s0.89-0.25,1.39-0.25c0.48,0,0.93,0.08,1.36,0.24c0.42,0.16,0.78,0.4,1.07,0.73l-0.45,0.45
			c-0.27-0.28-0.57-0.48-0.9-0.6c-0.33-0.12-0.69-0.19-1.07-0.19c-0.4,0-0.77,0.07-1.11,0.21c-0.34,0.14-0.64,0.33-0.89,0.58
			C387.29,267.2,387.1,267.49,386.95,267.82z M397.18,267.97h-2.09v-2.38h-2.77v0.61h2.07v6.05h2.63c0.82,0,1.46-0.19,1.9-0.56
			c0.44-0.37,0.67-0.91,0.67-1.63c0-0.69-0.21-1.21-0.62-1.56C398.56,268.15,397.96,267.97,397.18,267.97z M398.42,271.28
			c-0.32,0.27-0.79,0.41-1.4,0.41h-1.93v-3.15h1.93c0.62,0,1.09,0.12,1.41,0.38c0.32,0.25,0.48,0.64,0.48,1.17
			S398.74,271.01,398.42,271.28z M399.5,265.59h5.37v0.61h-2.34v6.05h-0.69v-6.05h-2.34V265.59z M413.47,265.59h0.69v6.66h-0.69
			v-3.07h-4.17v3.07h-0.7v-6.66h0.7v2.97h4.17V265.59z M418.47,265.59l-3.04,6.66h0.73l0.8-1.78h3.71l0.8,1.78h0.74l-3.04-6.66
			H418.47z M417.21,269.9l1.6-3.58l1.6,3.58H417.21z M431.95,268.81l2.28,3.44h-0.82l-2.04-3.05H430v3.05h-0.68v-3.05h-1.38
			l-2.04,3.05h-0.82l2.28-3.44l-2.11-3.22h0.76l1.92,2.99h1.39v-2.99H430v2.99h1.38l1.92-2.99h0.76L431.95,268.81z M440.31,265.59
			h0.64v6.66h-0.69v-5.51l-4.26,5.51h-0.64v-6.66h0.69v5.52L440.31,265.59z M447.98,269.17c-0.23-0.17-0.53-0.29-0.89-0.36
			c0.2-0.07,0.4-0.15,0.56-0.26c0.39-0.28,0.58-0.7,0.58-1.25c0-0.56-0.2-0.98-0.6-1.27c-0.4-0.29-0.96-0.43-1.66-0.43h-2.77v6.66
			h2.95c0.81,0,1.41-0.16,1.81-0.47c0.4-0.31,0.6-0.76,0.6-1.33C448.56,269.89,448.36,269.46,447.98,269.17z M443.89,266.16h2.03
			c0.51,0,0.91,0.1,1.18,0.31c0.28,0.21,0.41,0.51,0.41,0.92c0,0.41-0.14,0.71-0.41,0.92c-0.28,0.21-0.67,0.31-1.18,0.31h-2.03
			V266.16z M447.42,271.38c-0.29,0.21-0.72,0.31-1.28,0.31h-2.25v-2.54h2.25c0.56,0,0.99,0.1,1.28,0.3c0.29,0.2,0.44,0.52,0.44,0.95
			C447.86,270.84,447.72,271.17,447.42,271.38z M455.73,266.5c-0.31-0.3-0.68-0.54-1.11-0.71c-0.42-0.17-0.89-0.25-1.39-0.25
			c-0.51,0-0.97,0.08-1.4,0.25c-0.42,0.17-0.79,0.41-1.11,0.71s-0.56,0.67-0.73,1.07c-0.17,0.41-0.26,0.86-0.26,1.35
			s0.09,0.94,0.26,1.35c0.17,0.41,0.42,0.77,0.73,1.07s0.68,0.54,1.11,0.71c0.43,0.17,0.89,0.25,1.39,0.25
			c0.5,0,0.96-0.08,1.39-0.25c0.42-0.17,0.79-0.4,1.11-0.71c0.31-0.3,0.56-0.66,0.73-1.07s0.26-0.86,0.26-1.35s-0.09-0.94-0.26-1.35
			S456.04,266.8,455.73,266.5z M455.81,270.02c-0.14,0.33-0.33,0.62-0.58,0.87c-0.25,0.25-0.54,0.44-0.88,0.58
			c-0.34,0.14-0.71,0.21-1.11,0.21c-0.4,0-0.77-0.07-1.11-0.21c-0.34-0.14-0.64-0.33-0.89-0.58c-0.25-0.25-0.45-0.54-0.59-0.88
			s-0.21-0.7-0.21-1.09c0-0.4,0.07-0.77,0.21-1.1c0.14-0.33,0.34-0.62,0.59-0.87c0.25-0.25,0.55-0.44,0.89-0.58
			c0.34-0.14,0.71-0.21,1.11-0.21c0.4,0,0.77,0.07,1.11,0.21c0.34,0.14,0.63,0.33,0.88,0.58c0.25,0.25,0.45,0.54,0.58,0.87
			c0.14,0.33,0.21,0.7,0.21,1.1S455.95,269.69,455.81,270.02z M460.33,266.2v6.05h-0.69v-6.05h-2.34v-0.61h5.37v0.61H460.33z
			 M468.63,272.25h0.74l-3.04-6.66h-0.69l-3.04,6.66h0.73l0.8-1.78h3.71L468.63,272.25z M464.37,269.9l1.6-3.58l1.6,3.58H464.37z
			 M356.95,244.11c-0.28,0.75-0.42,1.6-0.42,2.53c0,0.93,0.14,1.77,0.42,2.53c0.28,0.76,0.67,1.4,1.17,1.93
			c0.5,0.54,1.1,0.94,1.79,1.22c0.7,0.28,1.47,0.42,2.33,0.42c1.09,0,2.07-0.25,2.94-0.75c0.87-0.5,1.67-1.2,2.39-2.11l5.19,4.63
			c-1.21,1.56-2.73,2.76-4.58,3.61s-3.97,1.27-6.36,1.27c-1.95,0-3.76-0.31-5.42-0.92c-1.66-0.61-3.1-1.49-4.32-2.63
			c-1.22-1.14-2.17-2.48-2.84-4.04c-0.67-1.56-1.01-3.27-1.01-5.16c0-1.88,0.34-3.6,1.01-5.16c0.67-1.56,1.62-2.9,2.84-4.04
			c1.22-1.14,2.66-2.01,4.32-2.63c1.66-0.62,3.47-0.92,5.42-0.92c2.39,0,4.51,0.42,6.36,1.25s3.37,2.04,4.58,3.62l-5.19,4.63
			c-0.72-0.91-1.52-1.61-2.39-2.11c-0.87-0.5-1.85-0.75-2.94-0.75c-0.86,0-1.64,0.14-2.33,0.42c-0.7,0.28-1.29,0.69-1.79,1.22
			C357.62,242.71,357.23,243.35,356.95,244.11z M396.98,237.49c-1.23-1.15-2.68-2.04-4.35-2.67c-1.67-0.63-3.51-0.94-5.5-0.94
			c-1.97,0-3.8,0.31-5.49,0.94c-1.68,0.63-3.14,1.52-4.37,2.67c-1.23,1.15-2.19,2.5-2.87,4.04s-1.03,3.25-1.03,5.1
			c0,1.83,0.34,3.53,1.03,5.09c0.69,1.56,1.64,2.91,2.87,4.06c1.23,1.15,2.69,2.04,4.37,2.67c1.68,0.63,3.51,0.94,5.49,0.94
			c2,0,3.83-0.31,5.5-0.94c1.67-0.63,3.12-1.52,4.35-2.67c1.23-1.15,2.19-2.5,2.87-4.06c0.69-1.56,1.03-3.25,1.03-5.09
			c0-1.86-0.34-3.56-1.03-5.1S398.21,238.64,396.98,237.49z M392.17,249.19c-0.28,0.75-0.67,1.39-1.17,1.92
			c-0.5,0.52-1.08,0.92-1.74,1.2c-0.66,0.28-1.38,0.42-2.14,0.42c-0.77,0-1.48-0.14-2.14-0.42c-0.66-0.28-1.24-0.68-1.74-1.2
			c-0.5-0.52-0.89-1.16-1.17-1.92c-0.28-0.75-0.42-1.61-0.42-2.56c0-0.95,0.14-1.8,0.42-2.56s0.67-1.39,1.17-1.92
			c0.5-0.52,1.08-0.92,1.74-1.2c0.66-0.28,1.38-0.42,2.14-0.42c0.77,0,1.48,0.14,2.14,0.42c0.66,0.28,1.24,0.68,1.74,1.2
			c0.5,0.52,0.89,1.16,1.17,1.92c0.28,0.75,0.42,1.61,0.42,2.56C392.59,247.59,392.45,248.44,392.17,249.19z M428.28,236.93
			c-1.63-0.62-3.56-1-5.77-1.17v-2.54h-7.52v2.57c-2.12,0.18-4,0.54-5.61,1.13c-2.3,0.84-4.03,2.06-5.19,3.67
			c-1.16,1.61-1.74,3.59-1.74,5.94c0,2.35,0.58,4.33,1.74,5.96c1.16,1.63,2.89,2.86,5.17,3.69c1.6,0.59,3.49,0.95,5.63,1.13v2.77
			h7.52v-2.72c2.29-0.15,4.28-0.55,5.96-1.21c2.18-0.86,3.83-2.1,4.93-3.73c1.1-1.63,1.65-3.59,1.65-5.89c0-2.32-0.57-4.29-1.71-5.9
			C432.21,239.01,430.52,237.78,428.28,236.93z M414.03,250.73c-1.22-0.29-2.13-0.78-2.73-1.46c-0.6-0.69-0.91-1.6-0.91-2.74
			c0-1.14,0.27-2.04,0.8-2.72c0.53-0.67,1.4-1.16,2.6-1.45c0.36-0.09,0.77-0.16,1.2-0.22v8.77
			C414.65,250.86,414.33,250.8,414.03,250.73z M426.34,249.19c-0.51,0.69-1.34,1.18-2.47,1.5c-0.4,0.11-0.87,0.19-1.36,0.27v-8.83
			c0.47,0.07,0.92,0.15,1.31,0.25c1.13,0.3,1.96,0.78,2.49,1.45c0.53,0.66,0.8,1.55,0.8,2.67
			C427.11,247.61,426.86,248.51,426.34,249.19z M454.46,234.44h7.73v24.38h-8.08v-12.64l-8.36,12.64h-7.77v-24.38h8.08v12.68
			L454.46,234.44z M476.47,234.44c-2.3,0-4.3,0.38-5.99,1.15c-1.7,0.77-3,1.85-3.92,3.26c-0.92,1.41-1.38,3.08-1.38,5.03
			c0,1.91,0.44,3.54,1.32,4.91c0.85,1.32,2.05,2.33,3.6,3.06l-4.82,6.98h8.6l3.72-5.78h2.2v5.78h8.08v-24.38H476.47z M474.26,241.51
			c0.52-0.49,1.31-0.73,2.35-0.73h3.2v6.06h-3.2c-1.02,0-1.8-0.26-2.33-0.78c-0.53-0.52-0.8-1.29-0.8-2.32
			C473.47,242.74,473.74,242,474.26,241.51z"/>
	</g>
</g>
<g id="BAR_QR">
</g>
<g id="SHTANCA">
	<rect class="st3" width="566.93" height="150.24"/>
</g>
</svg>
