<?xml version="1.0" encoding="utf-8"?>
<!-- Generator: Adobe Illustrator 21.1.0, SVG Export Plug-In . SVG Version: 6.00 Build 0)  -->
<svg version="1.1" id="Layer_1" xmlns="http://www.w3.org/2000/svg" xmlns:xlink="http://www.w3.org/1999/xlink" x="0px" y="0px"
	 viewBox="0 0 1959 442" style="enable-background:new 0 0 1959 442;" xml:space="preserve">
<style type="text/css">
	.st0{fill:#ED1819;}
	.st1{fill:#FF4B55;}
	.st2{fill:#FFFFFF;}
	.st3{fill:#73AF00;}
</style>
<g>
	<path class="st0" d="M40.4,30.4C68.7,8.9,104.9,0.6,140,0.7c93.8,0,187.6,0,281.5,0c0,139.8,0,279.6,0,419.4
		c-123.1,0-246.3,0-369.4,0c-3.1,0.1-6.4-0.6-9.2,0.9c-14.3,6.8-28.6,13.3-42.8,20.1V420c105.3-50.4,210.8-100.4,316.1-150.9
		c-0.1-7.4,0-14.7-0.1-22.1C210.7,297.4,105.3,347.6,0,397.9v-22.4C105.3,325.2,210.7,275,316.1,224.8c0-6.9,0-13.9,0-20.8
		C210.7,254.2,105.3,304.4,0,354.7v-22.4C105.3,282,210.6,231.8,316,181.6c0.1-7.2,0-14.4,0-21.6C210.7,210.3,105.3,260.5,0,310.8
		V289c105.3-50.4,210.8-100.5,316.1-150.8c-0.1-7.4,0-14.7-0.1-22.1C210.7,166.4,105.3,216.5,0,266.8v-21.7
		c23.2-11.8,46.5-23.6,69.7-35.4c-20-7.4-39.2-19.1-51.5-36.9C5.3,154.1,0.8,131,0,108.6V98.1C0.8,90.6,2,83,4.6,75.9
		C11.2,57.2,24.8,42,40.4,30.4z"/>
	<path class="st0" d="M507,0.7c58.6,0,117.3,0,176,0c19.7,0.1,39.4-0.3,59,0.2c24.1,0.9,48.4,4.7,70.7,14.3
		c13.9,6.1,27.3,14.2,36.7,26.3C861.8,56.9,867,76.7,868.1,96c1,19.7-0.8,40.1-8.8,58.3c-5.6,13-14.8,24.5-26.4,32.7
		c-15.8,11.6-34.8,18.5-54.1,21.2c-5.6,0.7-11.3,1.5-16.9,1.1c12.1,1.5,24.5,2.6,36.2,6.4c17.1,5.3,33.4,14.1,46,27.1
		c14.2,14.7,21.3,34.9,23.4,55c1.9,19.4,1,39.5-5.8,57.9c-5.3,14.5-14.9,27.4-27.3,36.6c-15.9,11.7-34.8,18.9-54,23
		c-17.9,3.8-36.2,5-54.5,4.8c-84,0-168,0-252,0c0-80.2,0-160.4,0-240.6c70,34.9,140,69.9,210,104.8c0-7.4,0-14.7,0-22.1
		c-70-34.5-140-69-210-103.5c0-7.7,0-15.3,0-23c70,35.1,140,70.3,210,105.5c0.1-7.1-0.1-14.3,0.1-21.4
		c-69.8-35.4-140-70.5-210-105.7c0-7.5,0-14.9,0-22.4c70,34.9,140,69.9,210,104.9c0-6.9-0.1-13.8,0.1-20.7
		C614.2,140.5,544,105.4,474,70.2c0-7.2,0-14.5,0-21.7c70,34.7,140,69.5,210,104.2c0-7.2,0-14.3,0-21.5c-70-35-140-69.9-210-105
		c0.1-7,0-14,0-21c70,35,140,69.9,210,104.9c0-7.6,0-15.2,0-22.8C625,58.4,566,29.7,507,0.7z"/>
	<path class="st0" d="M1015.8,28.9c26.9-15.4,57.2-24.6,88.1-27.2c26.6-2.3,53.7-0.6,79.6,6c37,9.5,71.3,29.5,97.8,57.1
		c25.3,26.6,42.8,60.3,51.3,95.9c8.8,37.8,7.9,77.9-2.9,115.2c-11.5,39.1-34.5,75-66.1,100.9c-30.5,25-68.1,41-107.2,46.1
		c-41,5.1-83.8,0.5-121.7-16.5c-26.3-11.8-49.7-29.6-69-50.9c-19.4-21.3-34.4-46.7-43.1-74.3c-11.2-35.1-12.1-72.7-7.6-109.1
		c1.8-13.9,4.9-27.6,9.2-40.9c62,30.6,123.8,61.5,185.7,92.3c0-7.4,0-14.8,0-22.2c-59.9-29.1-119.8-58.1-179.7-87.1
		c3.8-5.5,7.5-11,11.3-16.4c56.1,27.3,112.3,54.6,168.5,81.9c0-6.9,0-13.9,0-20.8c-52.2-25.2-104.5-50.3-156.7-75.4
		c5-4.8,10.1-9.6,15.2-14.5c47.2,22.2,94.4,44.6,141.6,66.8c0-7.2,0-14.4,0-21.6c-42.3-19.9-84.7-39.8-127.1-59.6
		c4.4-4.4,8.8-8.8,13.2-13.1c38,16.8,75.9,33.6,113.8,50.4c0-7.2,0-14.3,0-21.5C1078.6,56.4,1047.2,42.7,1015.8,28.9z"/>
	<path class="st0" d="M1391.1,0.7c56.9,0,113.9,0,170.8,0c25.7,0.2,51.4-0.6,77,1.2c23,1.6,45.9,4.8,68.1,11.3
		c18.4,5.4,36.4,13.3,51.7,25.1c12.7,9.8,23.1,22.7,29.5,37.4c8.2,18.5,10.3,39.2,8.7,59.3c-1.4,18.1-6.7,36.1-17,51.1
		c-9,13.2-21.6,23.8-35.5,31.4c-20.4,11.3-43.1,17.7-66,21.8c-24.6,4.3-49.6,5.8-74.5,5.9c-70.9,0-141.9,0-212.8,0
		c0-7.2,0-14.5,0-21.7c70.4,0,140.9,0,211.3,0c0-7.4,0-14.8,0-22.2c-70.4,0-140.9,0-211.3,0C1391.1,134.4,1391.1,67.5,1391.1,0.7z"
		/>
	<path class="st0" d="M1391.1,266.7c70.5,0,140.9,0,211.4,0c0.1,7.4-0.1,14.8,0.1,22.2c-70.5,0.4-141,0.1-211.4,0.2
		C1391.1,281.6,1391.1,274.1,1391.1,266.7z"/>
	<path class="st0" d="M1391.1,310.6c70.5,0,140.9,0,211.4,0c0,7.2,0,14.5,0,21.7c-70.5,0-140.9,0-211.4,0
		C1391.1,325.1,1391.1,317.9,1391.1,310.6z"/>
	<path class="st0" d="M1391.1,354.6c70.5,0,140.9,0,211.4,0c0,7,0,14,0,21c-70.4,0-140.9,0-211.4,0
		C1391.1,368.6,1391.1,361.6,1391.1,354.6z"/>
	<path class="st0" d="M1391.1,397.8c70.4,0,140.9,0,211.4,0c-0.1,7.5,0.2,15-0.1,22.5c-70.4-0.2-140.8,0-211.2-0.1
		C1391.1,412.7,1391.1,405.2,1391.1,397.8z"/>
</g>
<path class="st1" d="M1726,368.5H1959v46.9c0,2.2-1.8,4-4,4h-225c-2.2,0-4-1.8-4-4V368.5z"/>
<path class="st2" d="M1730,266.7h225c2.2,0,4,1.8,4,4v46.9H1726v-46.9C1726,268.5,1727.8,266.7,1730,266.7z"/>
<rect x="1726" y="317.6" class="st3" width="233.1" height="50.9"/>
</svg>
